<svg width="56" height="56" viewBox="0 0 56 56" fill="none" xmlns="http://www.w3.org/2000/svg">
<path d="M23.3397 28.072C23.3397 25.4925 25.4296 23.4008 28.0084 23.4008C30.5872 23.4008 32.6782 25.4925 32.6782 28.072C32.6782 30.6515 30.5872 32.7432 28.0084 32.7432C25.4296 32.7432 23.3397 30.6515 23.3397 28.072ZM20.8153 28.072C20.8153 32.0459 24.0356 35.2672 28.0084 35.2672C31.9812 35.2672 35.2015 32.0459 35.2015 28.072C35.2015 24.0981 31.9812 20.8768 28.0084 20.8768C24.0356 20.8768 20.8153 24.0981 20.8153 28.072ZM33.8053 20.5915C33.8052 20.9241 33.9036 21.2492 34.0882 21.5258C34.2728 21.8024 34.5353 22.018 34.8424 22.1454C35.1495 22.2728 35.4875 22.3062 35.8136 22.2415C36.1397 22.1767 36.4393 22.0167 36.6745 21.7816C36.9097 21.5466 37.0699 21.247 37.1349 20.9209C37.1999 20.5947 37.1667 20.2566 37.0396 19.9493C36.9125 19.642 36.6972 19.3793 36.4208 19.1944C36.1444 19.0096 35.8195 18.9108 35.487 18.9107H35.4863C35.0407 18.9109 34.6133 19.088 34.2981 19.4032C33.9829 19.7183 33.8057 20.1457 33.8053 20.5915ZM22.349 39.4778C20.9832 39.4156 20.2409 39.188 19.7476 38.9958C19.0936 38.7411 18.6269 38.4377 18.1363 37.9476C17.6457 37.4576 17.342 36.9912 17.0885 36.337C16.8962 35.8438 16.6687 35.101 16.6066 33.7348C16.5387 32.2578 16.5251 31.8141 16.5251 28.0721C16.5251 24.3301 16.5398 23.8877 16.6066 22.4094C16.6688 21.0433 16.8979 20.3019 17.0885 19.8073C17.3431 19.153 17.6463 18.6863 18.1363 18.1955C18.6262 17.7047 19.0924 17.4009 19.7476 17.1474C20.2407 16.955 20.9832 16.7274 22.349 16.6653C23.8256 16.5974 24.2692 16.5838 28.0084 16.5838C31.7476 16.5838 32.1916 16.5985 33.6695 16.6653C35.0352 16.7275 35.7763 16.9568 36.2709 17.1474C36.9249 17.4009 37.3916 17.7054 37.8822 18.1955C38.3728 18.6856 38.6754 19.153 38.93 19.8073C39.1223 20.3005 39.3498 21.0433 39.4119 22.4094C39.4798 23.8877 39.4934 24.3301 39.4934 28.0721C39.4934 31.8141 39.4798 32.2566 39.4119 33.7348C39.3497 35.101 39.1211 35.8435 38.93 36.337C38.6754 36.9912 38.3722 37.458 37.8822 37.9476C37.3922 38.4373 36.9249 38.7411 36.2709 38.9958C35.7778 39.1881 35.0352 39.4157 33.6695 39.4778C32.1929 39.5457 31.7493 39.5593 28.0084 39.5593C24.2675 39.5593 23.8252 39.5457 22.349 39.4778ZM22.233 14.1444C20.7417 14.2124 19.7227 14.4489 18.8328 14.7953C17.9111 15.153 17.1309 15.6329 16.3513 16.4115C15.5716 17.1902 15.0931 17.9718 14.7355 18.8938C14.3892 19.7845 14.1527 20.8033 14.0848 22.295C14.0158 23.789 14 24.2667 14 28.072C14 31.8773 14.0158 32.355 14.0848 33.8491C14.1527 35.3409 14.3892 36.3595 14.7355 37.2503C15.0931 38.1716 15.5717 38.9542 16.3513 39.7325C17.1308 40.5108 17.9111 40.99 18.8328 41.3488C19.7244 41.6951 20.7417 41.9317 22.233 41.9996C23.7274 42.0675 24.2042 42.0845 28.0084 42.0845C31.8126 42.0845 32.2902 42.0687 33.7838 41.9996C35.2752 41.9317 36.2935 41.6951 37.184 41.3488C38.1051 40.99 38.8859 40.5111 39.6655 39.7325C40.4452 38.9539 40.9227 38.1716 41.2813 37.2503C41.6276 36.3595 41.8652 35.3408 41.932 33.8491C41.9999 32.3539 42.0157 31.8773 42.0157 28.072C42.0157 24.2667 41.9999 23.789 41.932 22.295C41.8641 20.8031 41.6276 19.7839 41.2813 18.8938C40.9227 17.9724 40.4439 17.1914 39.6655 16.4115C38.8871 15.6317 38.1051 15.153 37.1851 14.7953C36.2935 14.4489 35.2751 14.2112 33.7849 14.1444C32.2913 14.0765 31.8138 14.0596 28.0095 14.0596C24.2053 14.0596 23.7274 14.0754 22.233 14.1444Z" fill="white"/>
</svg>
