<svg width="144" height="88" viewBox="0 0 144 88" fill="none" xmlns="http://www.w3.org/2000/svg">
<g clip-path="url(#clip0_20_3403)">
<path d="M6.83758 20.726C5.98869 19.4167 5.89981 18.4115 6.21979 17.349L6.09535 17.1551C6.09535 17.1551 4.43763 18.18 2.96879 19.1433C1.56439 20.0647 0 21.1536 0 21.1536L0.124441 21.3498C1.21996 21.4821 2.10215 21.967 2.95101 23.2764L13.7173 39.7755C15.0284 41.7968 14.9239 43.6043 13.1685 44.7572C11.5552 45.8174 9.36414 44.9159 8.33084 43.3222C7.27977 41.6998 7.32418 40.3023 8.45751 39.5595C8.62859 39.447 8.84415 39.3456 9.02192 39.3104C8.93972 39.1208 8.89302 38.9886 8.76418 38.7901C7.89751 37.4522 6.41979 37.2494 5.28649 37.9922C3.72877 39.015 3.331 41.6514 5.04872 44.2987C7.30641 47.7793 11.3641 48.3127 14.4084 46.3156C18.5416 43.6043 18.9461 39.544 16.715 36.1031L6.83758 20.7238V20.726Z" fill="white"/>
<path d="M20.22 41.9447L20.1068 41.7419C20.2912 40.5582 20.1934 40.0645 19.7845 38.5766L15.2203 22.353C14.8447 21.0767 14.598 20.4926 13.9092 19.9217L13.8025 19.71C14.7536 19.1612 17.5957 17.7461 18.4135 17.3779L18.5201 17.5896C18.5801 18.4977 18.9312 19.04 19.7223 20.0782L30.1264 33.4913C30.8864 34.4567 31.393 35.0431 32.3463 35.5479L32.4419 35.7639C30.8464 36.445 28.8753 37.34 27.111 38.1864L27.0065 37.9748C27.2576 36.9145 26.9754 36.3128 26.3666 35.495L24.9643 33.6897C24.2155 34.0225 21.9289 35.1776 21.1912 35.6008L21.8534 37.8249C22.14 38.7772 22.4466 39.4561 23.5089 39.7933L23.62 40.005C22.4822 40.6288 21.2178 41.3474 20.2178 41.9447H20.22ZM20.6223 33.6235C21.4822 33.1496 22.8222 32.4685 23.7089 32.0519L17.9512 24.4934L20.6201 33.6235H20.6223Z" fill="white"/>
<path d="M33.6957 11.0161L35.9268 17.058L35.7112 17.1462C32.8179 14.2255 31.0558 13.4209 29.9892 13.8817C29.0692 14.2806 28.787 15.5018 29.7447 18.0984L33.7357 28.8753C34.8868 31.9899 36.1912 33.447 37.6311 32.9245C39.2822 32.3249 39.1511 30.1075 38.0867 27.3785C37.7311 26.4682 37.6045 26.1948 37.3956 25.7826C37.5111 25.7033 37.6534 25.6283 37.7889 25.5776C38.76 25.2249 39.6244 25.3836 40.2422 26.9707C41.4843 30.1582 40.9088 33.2551 38.1111 34.2713C34.1468 35.7107 30.2714 32.9774 27.3848 25.161C24.9004 18.4313 25.6382 13.8354 29.2447 12.4952C30.8425 11.9132 31.6891 12.3717 32.4846 12.0697C32.9869 11.8801 33.2268 11.5385 33.4646 11.0998L33.6913 11.0183L33.6957 11.0161Z" fill="white"/>
<path d="M55.9276 28.9219C55.2787 28.5692 54.8143 28.1283 54.3633 27.2951L49.0367 17.1201L48.9012 17.0937C48.7478 17.1973 48.5634 17.2634 48.3767 17.3075C47.7968 17.442 47.1568 17.3163 46.5302 17.118L48.2323 11.53C49.1078 8.86287 49.4589 8.36247 49.8967 7.56015L49.8567 7.33527C48.7279 7.53147 47.1635 7.82902 45.9146 8.08916L45.9591 8.3184C46.1324 8.60937 46.2879 8.94441 46.388 9.49108C46.5168 10.192 46.4057 11.1399 46.1013 12.1429L44.0391 18.9189L42.2769 11.8166C41.937 10.4191 42.1236 9.93412 42.4636 9.10091L42.4081 8.87167C40.757 9.26406 38.4171 9.88563 36.7727 10.3662L36.8283 10.5932C37.5504 11.1818 37.946 11.5455 38.286 12.9408L42.5592 29.4862C42.8414 30.5708 42.7836 31.0623 42.3147 31.9881L42.3725 32.2041C44.2169 31.6508 46.048 31.1483 47.939 30.7096L47.8835 30.4826C46.9724 29.9293 46.7123 29.5854 46.3946 28.4237L44.9169 22.4677L45.728 19.8403L50.0767 28.1283C50.4967 28.9197 51.01 29.6229 51.4966 29.9315C53.0922 29.6207 54.3788 29.3959 55.9543 29.1556L55.9232 28.9241L55.9276 28.9219Z" fill="white"/>
<path d="M61.4316 0.0453808C63.3405 -0.051608 65.5602 -0.133167 67.6846 1.37678C70.7557 3.57886 72.1492 8.56715 72.3958 12.9338C72.78 19.754 71.2693 27.9208 64.1005 28.289C64.1005 28.289 62.1516 28.4455 61.5428 28.494C60.7517 28.5579 58.5028 28.7805 58.5028 28.7805L58.4784 28.5469C58.9695 28.1369 59.6562 27.3235 59.5584 25.5799L58.2095 3.62735C58.1051 1.77355 57.4407 1.04833 56.8051 0.594249L56.7896 0.360594C57.5518 0.290057 59.7161 0.133553 61.4294 0.0475855L61.4316 0.0453808ZM67.6916 13.6591C67.3201 7.0771 66.0891 1.65451 63.1382 1.8C62.8005 1.81763 62.6427 2.03145 62.6649 2.44144L63.9871 25.9612C64.0094 26.3381 64.1515 26.4682 64.456 26.4528C67.2914 26.3117 68.1204 21.2683 67.6916 13.6591Z" fill="white"/>
<path d="M71.7166 28.0357L71.7318 27.8064C72.4276 27.0129 72.685 26.345 73.1139 24.9343L77.7403 8.72827C78.087 7.43435 78.1806 6.79069 77.8939 5.94647L77.9136 5.73927C79.014 5.76351 79.8736 5.83405 80.7694 5.9068C81.4984 5.96631 82.2273 6.02803 83.118 6.13383L83.0983 6.34107C82.6625 7.12578 82.6472 7.76723 82.7803 9.10965L84.616 25.935C84.8072 27.5331 84.9601 28.1481 85.4271 28.8491L85.3934 29.0827C83.4468 28.7983 81.4136 28.5669 79.5716 28.3949L79.5939 28.1591C80.3648 27.3832 80.4604 26.7263 80.354 25.7013L80.1049 23.4375C79.2893 23.3339 76.7317 23.1377 75.8804 23.1179L75.2783 25.3575C75.0496 26.2061 74.9075 27.1121 75.5893 27.8946L75.5765 28.1326C74.241 28.0687 72.8851 28.0379 71.7185 28.0291L71.7166 28.0357ZM76.4316 21.1429C77.416 21.1825 78.9159 21.2949 79.8914 21.3963L78.9471 11.9686L76.4297 21.1406L76.4316 21.1429Z" fill="white"/>
<path d="M95.0865 7.85112L95.0355 8.08036C94.6042 8.50359 94.564 9.08553 94.7577 10.2274L96.5443 22.5008L99.3198 11.4618C99.5817 10.4169 99.7219 9.92976 99.1771 8.98854L99.2377 8.75929C100.253 8.99297 101.768 9.37207 102.722 9.641L102.659 9.86803C101.764 10.45 101.682 10.9371 101.38 12.004L97.1662 28.6199C96.8795 29.9359 96.8597 30.4473 97.084 31.2872L97.0197 31.5164C95.6733 31.1527 94.5334 30.8705 93.1623 30.5487L93.2043 30.3503C93.3107 29.8566 93.3419 29.3143 93.24 28.534L91.282 15.1099L89.0309 27.0571C88.8869 27.8529 88.8512 28.6199 89.3647 29.5215L89.3201 29.7398C88.1579 29.5215 87.0665 29.3408 85.8845 29.1556L85.9221 28.9352C86.5778 28.2849 86.6956 27.7603 86.8912 26.7353L90.0331 9.90329C90.2752 8.47497 90.1446 7.97679 89.7821 7.14358L89.8331 6.91212C91.3756 7.13693 93.5573 7.52489 95.0884 7.84891L95.0865 7.85112Z" fill="white"/>
<path d="M98.3003 31.873L98.3736 31.6481C99.256 31.0794 99.5581 30.7863 99.9295 29.6334L105.071 13.3723C105.516 11.9947 105.416 11.437 105.136 10.5729L105.209 10.348C106.664 10.7669 109.54 11.6816 110.842 12.1424L110.769 12.3672C110.036 12.9116 109.569 13.2731 109.125 14.6508L103.785 30.8766C103.414 32.0295 103.489 32.4417 103.941 33.4314L103.863 33.6518C102.205 33.0787 99.9136 32.3425 98.3003 31.873Z" fill="white"/>
<path d="M121.075 20.711C120.427 18.8439 119.78 17.6955 118.533 17.1489L117.698 16.7807C117.12 16.5272 117.031 16.6595 116.829 17.1577L114.335 23.1974C114.335 23.1974 114.827 23.409 115.173 23.5435C116.509 24.0549 117.582 23.1004 118.116 22.6441L118.276 22.7146L115.94 28.3466L115.802 28.2893C115.715 27.3679 115.802 25.8955 114.402 25.2804C114.071 25.135 113.609 24.9542 113.609 24.9542L110.106 33.443C109.904 33.9433 110.133 34.1065 111.36 34.6157C112.3 35.0058 113.013 34.9287 115.856 33.476L116.038 33.5708L113.511 37.6487C110.849 36.3636 107.765 35.0741 104.685 33.95L104.769 33.7295C105.685 33.2358 106 32.9801 106.454 31.8537L112.767 15.9166C113.309 14.572 113.227 14.065 113.044 13.1855L113.133 12.9673C116.26 14.1025 119.698 15.5573 122.357 16.8094L122.155 17.3097L121.229 20.7793L121.075 20.7132V20.711Z" fill="white"/>
<path d="M126.397 37.578L122.539 42.5619C120.281 41.1511 117.059 39.3723 114.319 38.0365L114.428 37.8293C115.408 37.4524 115.775 37.2231 116.361 36.1629L124.585 21.1494C125.286 19.8841 125.266 19.3706 125.161 18.4624L125.275 18.2574C126.617 18.9032 129.532 20.4485 130.501 21.0304L130.387 21.2354C129.565 21.6234 129.063 21.8438 128.332 23.1686L119.926 38.0894C119.599 38.678 119.701 38.8257 120.423 39.2312C121.612 39.8991 122.537 39.4693 126.21 37.4436L126.399 37.5802L126.397 37.578Z" fill="white"/>
<path d="M135.18 18.0151C135.547 18.0151 135.854 18.1297 136.145 18.2752C137.091 18.7866 137.329 19.6154 137.307 20.3076C137.238 22.384 135.036 23.938 132.221 23.9667C131.752 23.9535 131.241 23.8917 131.241 23.8917L131.259 23.5677C132.185 23.4024 133.407 22.9395 134.123 21.9652C133.438 21.586 132.978 20.8366 133.032 20.0122C133.074 18.8483 134.067 17.9754 135.183 18.0151H135.18Z" fill="white"/>
<path d="M140.276 35.1799C140.367 30.6104 140.289 28.6244 139.031 27.725C138.189 27.1232 136.985 27.2158 136.271 28.1989C135.182 29.7001 135.654 31.8999 136.193 35.105C136.791 38.5393 137.287 42.2887 135.396 44.8942C133.745 47.1691 130.467 48.4013 127.385 46.1992C125.847 45.1015 125.683 43.9861 124.687 43.2631C124.316 42.9986 123.918 43.0338 123.514 43.4681L123.087 43.1573L127.047 37.9684L127.233 38.1094C126.476 41.0191 126.625 43.8406 128.245 44.9978C129.489 45.8862 130.996 45.6327 131.707 44.654C132.856 43.0713 132.647 40.3666 132.154 37.155C131.365 32.6318 131.2 29.9513 132.874 27.6457C134.635 25.2166 137.611 24.8043 140.042 26.5413C141.282 27.4407 141.877 28.8184 142.715 29.4157C143.071 29.6692 143.502 29.645 143.802 29.4818L144 29.6053L140.44 35.2791L140.28 35.1844L140.276 35.1799Z" fill="white"/>
<path d="M133.362 48.187C132.944 48.187 132.584 48.3325 132.291 48.6257C131.993 48.9167 131.844 49.2693 131.844 49.6815C131.844 50.0937 131.993 50.4464 132.289 50.7374C132.584 51.0283 132.942 51.1738 133.364 51.1738C133.786 51.1738 134.14 51.0283 134.435 50.7374C134.733 50.4464 134.88 50.0937 134.88 49.6837C134.88 49.2737 134.731 48.9188 134.435 48.6279C134.137 48.3347 133.782 48.1892 133.366 48.1892L133.362 48.187ZM133.362 47.8895C133.686 47.8895 133.991 47.971 134.271 48.1297C134.553 48.2906 134.773 48.5088 134.937 48.7866C135.1 49.0622 135.182 49.3597 135.182 49.6815C135.182 50.0034 135.102 50.3009 134.937 50.5764C134.775 50.852 134.553 51.068 134.271 51.2289C133.991 51.3898 133.686 51.4692 133.36 51.4692C133.033 51.4692 132.727 51.3898 132.446 51.2311C132.164 51.0724 131.942 50.8542 131.78 50.5787C131.615 50.3009 131.536 50.0034 131.536 49.6815C131.536 49.3597 131.618 49.0599 131.78 48.7844C131.944 48.5088 132.166 48.2906 132.449 48.1319C132.728 47.971 133.033 47.8916 133.36 47.8916L133.362 47.8895ZM132.658 48.7491H133.429C133.54 48.7491 133.648 48.758 133.733 48.7778C134.015 48.8461 134.159 49.029 134.159 49.3112C134.159 49.5647 134.024 49.7455 133.784 49.8359L134.253 50.6029H133.886L133.457 49.8909H132.971V50.6029H132.655V48.7491H132.658ZM133.4 49.6242C133.508 49.6242 133.595 49.6154 133.669 49.5845C133.784 49.5339 133.84 49.4412 133.84 49.3112C133.84 49.1812 133.784 49.093 133.662 49.0489C133.606 49.0269 133.526 49.018 133.415 49.018H132.973V49.6242H133.4Z" fill="white"/>
<path d="M118.647 52.1374C118.647 49.4988 116.885 46.5274 112.654 46.5274C112.587 46.5274 112.521 46.5319 112.454 46.5341C111.856 45.1277 111.005 44.2746 109.574 44.2746C107.416 44.2746 106.507 46.6994 106.169 48.5201C105.134 48.8353 104.127 49.0007 103.465 48.9985C100.579 48.9896 98.8433 47.332 98.8146 44.9866C98.8146 44.9735 98.8146 44.9602 98.8146 44.9492C101.381 44.7684 103.95 43.5362 103.95 41.905C103.95 41.1886 103.363 40.8161 102.459 40.8228C100.868 40.8316 99.0612 41.9954 98.5591 43.8867C98.3367 43.8867 98.1144 43.8823 97.8965 43.8735C96.7209 43.7919 95.5211 43.5979 94.4787 43.1108C93.9747 42.8683 93.5166 42.531 93.219 42.0792C94.8699 41.7508 96.5342 40.7148 96.4991 39.5487C96.4768 38.8609 95.9346 38.4575 95.07 38.4575C93.4987 38.4575 92.4213 39.6655 92.4213 41.0586C92.4213 41.1005 92.4257 41.1423 92.4276 41.1865C91.9415 41.2195 91.4477 41.235 90.966 41.2041C90.3747 41.1755 89.7904 41.0828 89.2233 40.9396C88.6594 40.7919 88.1102 40.5648 87.6591 40.2276C87.4928 40.1041 87.3392 39.9609 87.2124 39.8022C87.2303 39.7977 87.2456 39.7956 87.2634 39.7889C88.6569 39.401 89.6171 38.603 89.6171 37.6684C89.6171 37.0644 89.2278 36.7404 88.5791 36.7404C87.4322 36.7404 86.4306 37.6508 86.4128 38.991C86.4128 39.0439 86.4172 39.099 86.4217 39.1519C86.2745 39.1607 86.128 39.1761 85.9814 39.1805C83.9839 39.2114 82.2304 38.819 81.5614 38.074C82.4814 37.7478 83.3658 37.1548 83.3658 36.3481C83.3658 35.8653 83.0262 35.6052 82.4572 35.6052C81.6085 35.6052 80.8439 36.2422 80.8439 37.2341C80.8439 37.3421 80.8528 37.4524 80.8681 37.5604C79.855 37.7345 78.7929 37.7852 77.7842 37.6309C76.6221 37.4458 75.4771 36.963 74.715 36.0262L74.5353 35.7771L74.455 36.0681C74.1976 36.9961 73.484 37.653 72.2664 37.6838C71.9707 37.6905 71.7178 37.6574 71.433 37.5956C71.8911 37.2915 72.304 36.8065 72.304 36.1496C72.304 35.3517 71.7197 34.9218 71.0086 34.9218C70.2975 34.9218 69.7578 35.4597 69.7578 36.1805C69.7578 36.8352 70.1019 37.3113 70.604 37.6177C70.3689 37.6662 70.0955 37.6926 69.8572 37.6926C68.5886 37.6926 67.8177 37.0776 67.5379 36.2092L67.4774 35.9909L67.2996 36.1584C65.7067 37.6618 63.4044 37.9087 61.3245 37.6155C61.1489 37.5868 60.9756 37.5471 60.8023 37.5053C60.8467 37.3311 60.8734 37.1438 60.8734 36.9829C60.8734 36.0703 60.209 35.5677 59.5312 35.5677C59.0735 35.5677 58.7668 35.8609 58.7668 36.2731C58.7668 37.0468 59.5312 37.5758 60.1712 37.8734C59.6157 38.4355 58.6401 38.6846 57.7002 38.8014C56.8335 38.9094 56.1869 38.9447 55.3958 38.8719C55.4091 38.7772 55.4181 38.6802 55.4181 38.581C55.4181 37.6221 54.6714 36.6324 53.467 36.6324C52.847 36.6324 52.4426 36.9564 52.4426 37.545C52.4426 38.4818 53.5559 39.1739 54.6359 39.5067C54.0625 40.2033 52.7337 40.8955 50.8759 40.9969C50.5804 41.0123 50.2849 41.0123 49.9849 41.0013C49.9515 39.5222 48.6938 38.2944 47.1827 38.2944C46.3183 38.2944 45.7983 38.7639 45.7983 39.412C45.7983 40.7081 47.6316 41.6251 49.2049 41.8984C48.456 42.9785 46.5761 43.9066 43.5473 43.9837C43.4496 43.9859 43.354 43.9881 43.2585 43.9881C42.8184 42.487 41.4318 41.0123 39.4719 41.0123C38.5875 41.0123 38.0097 41.4466 38.0097 42.1431C38.0097 43.7148 40.3007 44.9007 43.0229 45.0858C43.0229 45.1277 43.0295 45.1674 43.0295 45.2093C43.0607 47.4378 41.7096 48.9654 39.0075 48.9654C37.5897 48.9654 36.5809 48.681 35.7209 48.3967C35.3631 46.4812 34.5787 44.1049 32.2655 44.1049C31.0055 44.1049 29.9345 44.9823 29.2722 46.7259C29.0278 46.7214 28.7833 46.7259 28.5389 46.7435C25.7102 46.9484 23.668 48.7097 23.668 52.4129C23.668 54.6943 24.7257 57.5797 26.8834 59.6695C26.2612 60.3043 25.919 61.2433 25.919 62.3763C25.919 65.4423 28.3034 68.7071 30.59 70.3139C30.5166 70.5209 30.4522 70.7881 30.4522 71.0964C30.4522 73.8383 33.8476 76.208 37.1964 77.152C37.1831 77.1868 37.1698 77.2222 37.1587 77.2621C37.1075 77.4425 37.0876 77.6299 37.0942 77.8173C37.1653 79.5786 39.5541 81.2626 44.0206 81.5336C44.5962 81.569 45.1672 81.5735 45.7383 81.5602C45.7228 81.6659 45.7095 81.7805 45.7095 81.9261C45.7095 83.3962 47.0272 84.7124 49.7093 84.7124C52.0759 84.7124 54.1736 83.8241 56.3713 83.7026C56.9113 83.6741 57.5668 83.7026 58.038 83.89C58.1179 83.921 58.1357 83.9539 58.1357 83.9786C58.1357 84.0027 58.1068 84.0179 58.0624 84.0248C56.1647 84.3774 54.6225 84.8162 54.6225 86.0305C54.6225 86.8725 55.4269 87.3903 56.5269 87.384C57.0891 87.3815 57.6202 87.2321 58.1046 87.0554C59.2024 86.661 60.1623 86.121 61.1712 85.7019C62.1711 85.2657 63.2178 84.9441 64.3024 84.8029C65.3843 84.6769 66.5019 84.7257 67.5934 84.8713C68.1375 84.946 68.6995 85.0606 69.1908 85.2062C69.3201 85.2435 69.5552 85.3271 69.6553 85.3758C69.6667 85.3803 69.6642 85.3936 69.6508 85.3936C69.6017 85.3936 69.5578 85.3784 69.489 85.3714C69.3845 85.3581 69.113 85.31 69.0022 85.2923C67.9043 85.1156 66.7797 84.9833 65.6558 84.9903C65.0224 84.9878 64.382 85.0321 63.7557 85.1998C63.4445 85.2878 63.1289 85.3999 62.8489 85.6183C62.7111 85.7266 62.58 85.8741 62.5134 86.0659C62.4533 86.2622 62.46 86.4736 62.5245 86.661C62.6622 87.0421 62.9622 87.3004 63.2622 87.4923C63.5667 87.6879 63.8997 87.8095 64.2336 87.8911C64.9045 88.0412 65.5736 88.0101 66.2196 87.9304C67.5309 87.7632 68.6868 87.2055 69.8821 86.939C70.4798 86.7978 71.0933 86.756 71.6955 86.8415C72.3021 86.932 72.8953 87.1042 73.4885 87.3004C74.0817 87.4942 74.6774 87.7037 75.3108 87.8512C75.6306 87.9152 75.9549 87.9855 76.3086 87.9943C76.6437 88.0076 76.9661 87.9969 77.2975 87.9595C77.9505 87.869 78.6285 87.6904 79.2109 87.2055C79.353 87.0776 79.4817 86.9212 79.5639 86.7313C79.6218 86.5971 79.6416 86.4603 79.6416 86.3217C79.6416 85.2372 77.8926 84.9745 76.364 84.9745C75.9218 84.9745 75.4688 84.9966 75.0776 85.0188C74.4506 85.0587 73.8083 85.153 73.1909 85.2195C73.0373 85.2347 72.4639 85.3144 72.2976 85.2986C72.2931 85.2986 72.2906 85.2897 72.2976 85.2878C72.4288 85.2416 72.7353 85.1688 72.8819 85.1315C74.0753 84.8554 75.3993 84.7276 76.6348 84.6927C77.8728 84.6528 79.1108 84.7719 80.266 85.1511C80.8439 85.3341 81.4014 85.5677 81.9418 85.8367C82.4814 86.1096 83.0084 86.4141 83.5774 86.7072C84.1394 86.9871 84.8351 87.3004 85.5813 87.3049C86.5791 87.3068 87.3105 86.7446 87.3105 85.9735C87.3105 85.3144 86.8569 84.9086 86.084 84.6263C85.5195 84.4211 84.8129 84.342 84.2126 84.2255C84.0814 84.1989 83.9947 84.1749 83.9947 84.1483C83.9947 84.1065 84.1324 84.0223 84.2725 83.9697C84.5395 83.864 84.8415 83.8108 85.1391 83.7887C85.7348 83.7602 86.3656 83.8393 86.9703 83.9324C88.1835 84.1305 89.3903 84.5117 90.6722 84.6617C91.3171 84.7345 91.937 84.7871 92.6277 84.7434C93.3012 84.6883 93.9836 84.5294 94.601 84.1945C95.2146 83.8659 95.7836 83.3436 96.0569 82.6687C96.192 82.3338 96.2519 81.9768 96.2366 81.6349C96.2366 81.6241 96.2347 81.6134 96.2347 81.602C98.3342 81.6596 100.419 81.3177 101.863 80.7998C103.701 80.1167 105.032 78.8708 105.032 77.5774C105.032 77.2969 104.965 77.0456 104.852 76.8189C105.476 76.6227 106.101 76.3865 106.696 76.1181C107.285 75.8598 107.85 75.549 108.398 75.2077C108.947 74.8659 109.481 74.4866 109.961 74.0346C110.438 73.5807 110.874 73.0603 111.192 72.4474C111.441 71.9562 111.614 71.537 111.614 70.8058C111.614 70.5697 111.569 70.3424 111.483 70.1309C114.17 68.0721 115.996 64.7237 115.996 62.0434C115.996 60.9524 115.696 60.1632 115.211 59.6275C117.127 57.7429 118.634 55.1528 118.634 52.1462L118.647 52.1374ZM116.13 47.8412C117.043 48.5466 117.414 49.7082 117.436 50.9999C117.47 53.0455 116.947 56.5482 114.711 59.1823C114.232 58.8781 113.654 58.7326 113.029 58.7238C113.385 56.4578 113.514 54.1587 113.461 51.8685C113.398 50.2726 113.167 48.6061 112.707 47.2196C113.051 47.1491 113.416 47.1116 113.761 47.1138C114.645 47.1248 115.561 47.3959 116.127 47.839L116.13 47.8412ZM112.976 59.0698C113.58 59.0963 114.054 59.255 114.4 59.535C113.818 60.1478 113.214 60.5842 112.639 60.8047C112.767 60.2293 112.881 59.6518 112.978 59.0698H112.976ZM112.234 60.9259C112.087 60.9567 111.945 60.9766 111.805 60.9744C111.192 60.9634 110.945 60.6989 110.945 60.3219C110.945 59.8413 111.538 59.1558 112.6 59.0743C112.496 59.6959 112.376 60.3131 112.234 60.9259ZM109.572 44.559C110.683 44.559 111.51 45.1674 112.112 46.5583C110.376 46.7236 108.563 47.6208 107.156 48.1763C106.981 48.2468 106.803 48.3129 106.625 48.3746C107.058 45.6347 108.254 44.559 109.572 44.559ZM100.272 41.9712C100.745 41.6075 101.299 41.3451 101.883 41.2283C102.074 41.1931 102.274 41.1666 102.467 41.1622C103.21 41.1468 103.561 41.4708 103.561 41.8632C103.561 42.8507 102.099 43.8272 98.9701 43.8845C99.1854 43.1329 99.6257 42.4627 100.274 41.9712H100.272ZM95.0502 38.7375C95.7212 38.7375 96.1302 39.0372 96.1213 39.5266C96.1124 40.0424 95.5345 40.9109 92.8832 41.1468C92.8743 41.074 92.8654 40.9991 92.8654 40.9263C92.8654 39.6875 93.8058 38.7397 95.0502 38.7397V38.7375ZM88.5658 37.0093C88.9857 37.0138 89.2679 37.2099 89.2679 37.6045C89.2679 38.3098 88.3013 38.9359 86.8862 39.1122C86.8703 39.0307 86.8594 38.9491 86.8594 38.8653C86.8594 37.8095 87.5884 37.0027 88.5683 37.0093H88.5658ZM81.1925 37.1482C81.1925 36.2951 81.7997 35.8587 82.4725 35.8587C82.8325 35.8587 83.0396 36.0196 83.0396 36.2709C83.0396 36.6654 82.6038 37.1724 81.3416 37.4634C81.3084 37.47 81.2772 37.4766 81.2441 37.4833C81.2148 37.3753 81.195 37.2628 81.195 37.1482H81.1925ZM70.0955 36.1629C70.0955 35.5832 70.4931 35.2217 71.0041 35.2194C71.5196 35.2194 71.9599 35.5721 71.9599 36.1452C71.9599 36.6632 71.6241 37.168 71.0264 37.459C70.4377 37.2055 70.0955 36.7249 70.0955 36.1629ZM59.0757 36.2004C59.0757 35.9424 59.2379 35.7925 59.5335 35.7925C60.0201 35.7925 60.5623 36.2268 60.5623 36.8793C60.5668 37.0666 60.5423 37.2429 60.4779 37.4105C59.4223 37.0843 59.0757 36.6081 59.0757 36.2026V36.2004ZM52.7781 37.4634C52.7781 37.0556 53.0714 36.8793 53.4226 36.8793C54.2248 36.8793 55.0581 37.5207 55.0158 38.5876C55.0158 38.6647 55.0025 38.7397 54.9869 38.8124C53.627 38.6228 52.7804 38.0982 52.7804 37.4612L52.7781 37.4634ZM46.1628 39.3437C46.1628 38.8609 46.5717 38.5612 47.2183 38.5612C48.4738 38.5612 49.5227 39.7338 49.5227 40.8977C49.5227 40.9219 49.5204 40.9418 49.5183 40.966C47.5405 40.8117 46.1628 40.1769 46.1628 39.3437ZM38.3941 42.0924C38.3897 41.6185 38.7631 41.2856 39.4941 41.2945C40.9452 41.3143 42.3562 42.3856 42.8429 43.9837C40.1385 43.9727 38.4031 43.0844 38.3941 42.0902V42.0924ZM32.2455 44.3738C33.9743 44.3738 34.8765 45.9235 35.2632 48.2314C34.1943 47.8611 33.1121 47.4312 31.9677 47.127C31.1988 46.9198 30.3944 46.7699 29.5833 46.728C30.2567 45.0219 31.2122 44.3738 32.2455 44.3738ZM24.568 51.1961C24.568 49.6994 24.9391 48.8133 25.5657 48.2181C26.3123 47.4929 27.2723 47.2593 28.3278 47.2593C28.6922 47.2593 28.8989 47.2791 29.0789 47.3034C28.6811 48.6436 28.4078 50.6407 28.4078 52.9772C28.4145 55.0184 28.5789 56.9229 28.9212 58.7965C28.3989 58.823 27.9345 58.9508 27.539 59.1668C25.7368 56.9317 24.568 53.6561 24.568 51.1961ZM29.3189 59.0897C30.3411 59.1206 31.0922 59.6187 31.0877 60.2888C31.0855 60.6482 30.7788 60.906 30.2788 60.9215C30.1122 60.9281 29.9278 60.9127 29.7389 60.8664C29.5811 60.2756 29.4389 59.6827 29.3189 59.0897ZM29.3434 60.7253C28.7633 60.4696 28.2967 60.0574 27.7923 59.4733C28.1323 59.255 28.5345 59.1316 28.9767 59.0985C29.0812 59.6408 29.2056 60.183 29.3434 60.7231V60.7253ZM26.7901 61.5585C26.7901 60.8245 26.9434 60.344 27.2145 59.9714C27.7968 60.4894 28.5745 61.0471 29.4789 61.2322C29.7922 62.3895 30.1722 63.5512 30.6433 64.7414C31.2299 66.2336 31.9322 67.5897 32.7166 68.8236C32.0544 68.923 31.4277 69.194 31.0011 69.6441C29.1233 67.9772 26.7901 64.5148 26.7901 61.5585ZM33.3299 69.073C34.621 69.0749 35.5831 69.7188 35.5831 70.4418C35.5831 70.7723 35.4076 71.0698 34.9054 71.18C34.3454 70.5121 33.8188 69.8112 33.3299 69.073ZM34.452 71.2224C34.4387 71.2224 34.4254 71.2224 34.4143 71.2224C33.8876 71.2066 33.3654 71.0698 32.8788 70.8672C32.2988 70.6248 31.7699 70.281 31.281 69.884C31.6077 69.4453 32.2344 69.1788 32.8899 69.0996C33.381 69.8511 33.9032 70.5589 34.452 71.2224ZM31.0255 70.6779C31.0255 70.6513 31.0322 70.6248 31.0344 70.6007C31.5544 70.9223 32.1032 71.1933 32.6899 71.3832C33.2454 71.5592 33.8343 71.6586 34.4232 71.6231C34.5343 71.6168 34.6454 71.601 34.7565 71.5795C35.8142 72.8089 36.9542 73.8896 38.1364 74.8348C38.4497 75.0862 38.7741 75.3223 39.0986 75.5578C38.5697 75.7497 37.9809 76.0979 37.6586 76.4112C35.1276 75.3818 31.0411 72.3949 31.0277 70.6779H31.0255ZM39.8652 75.668C40.1341 75.6085 40.4119 75.5781 40.6985 75.5781C41.8918 75.5781 42.5007 75.9611 42.5074 76.3694C42.5118 76.6334 42.3607 76.8367 41.9163 76.9734C41.214 76.5632 40.5297 76.1308 39.8652 75.6705V75.668ZM41.3918 77.0747C41.2985 77.0855 41.203 77.0969 41.1074 77.0988C40.0874 77.1342 39.0763 76.9139 38.1075 76.5784C38.2364 76.4397 38.3853 76.3163 38.5497 76.2124C38.8208 76.0428 39.1097 75.9016 39.4141 75.7959C40.0541 76.2504 40.7185 76.6714 41.3896 77.0747H41.3918ZM37.7342 77.4799C37.7342 77.4229 37.7386 77.359 37.7497 77.2906C38.8275 77.5394 40.1697 77.685 41.1519 77.5464C41.3963 77.509 41.6407 77.4539 41.8807 77.3697C43.514 78.3111 45.2272 79.1133 46.9805 79.8103C46.6539 80.0262 46.2583 80.3674 46.0028 80.8131C41.3652 80.703 37.7319 78.9943 37.7319 77.4799H37.7342ZM49.6338 80.3105C49.6027 80.337 49.5671 80.3611 49.5316 80.3833C48.9472 80.1826 48.3672 79.9686 47.7916 79.7508C47.9472 79.6824 48.1094 79.6229 48.2738 79.583C48.4316 79.5457 48.636 79.5299 48.796 79.528C49.4427 79.5235 49.7915 79.7154 49.7915 80.0148C49.7915 80.1231 49.7316 80.2313 49.6338 80.3105ZM49.0738 80.584C49.0382 80.5947 49.0049 80.6055 48.9693 80.6143C48.4605 80.7422 47.916 80.7802 47.3739 80.8017C47.1094 80.8131 46.8428 80.8106 46.5761 80.8131C46.6606 80.6498 46.7695 80.4953 46.9139 80.3434C47.0539 80.2003 47.2161 80.0768 47.3872 79.9667C47.9472 80.1826 48.5071 80.3896 49.0738 80.584ZM95.739 81.6153C95.7103 81.8907 95.6256 82.1509 95.4809 82.3712C95.1942 82.8169 94.7081 83.0897 94.1926 83.2664C93.672 83.443 93.1145 83.5487 92.5455 83.6013C92.2632 83.6323 91.9791 83.6323 91.6701 83.6367C90.0102 83.6367 87.7725 83.3987 85.9527 83.3987C85.364 83.3987 84.6593 83.4626 84.1636 83.6874C83.8552 83.8286 83.7105 83.9742 83.7105 84.1457C83.7105 84.3287 83.8813 84.4192 84.1572 84.4787C84.7791 84.5997 85.3901 84.6769 85.9636 84.8713C86.2458 84.97 86.5173 85.1201 86.6906 85.3296C86.8683 85.5322 86.9123 85.8013 86.8346 86.026C86.688 86.4451 86.0923 86.4958 85.5857 86.4318C85.0773 86.3609 84.5503 86.1451 84.0036 85.876C82.9147 85.3271 81.6996 84.7826 80.433 84.5427C79.1682 84.2869 77.8282 84.2717 76.5749 84.3331C75.3197 84.4085 74.0288 84.5402 72.7888 84.8225C72.2441 84.9548 72.0064 85.0739 72.0064 85.2986C72.0064 85.4594 72.1287 85.5898 72.4907 85.5898C72.7175 85.5898 73.0909 85.5303 73.2463 85.5145C73.8688 85.4461 74.4844 85.3784 75.1043 85.3385C75.7217 85.3011 76.3462 85.2701 76.9527 85.3056C78.2863 85.4043 79.2217 85.6582 79.2325 86.2046C79.2414 86.4274 79.086 86.6104 78.8598 86.7098C78.3908 86.9143 77.7842 86.9257 77.2082 86.9674C76.9171 86.9852 76.615 87.0029 76.3264 87.0048C76.055 87.0092 75.7574 86.9915 75.4618 86.9586C74.8641 86.9035 74.2441 86.8174 73.6216 86.7357C72.9972 86.6547 72.3709 86.5616 71.7375 86.5046C71.0978 86.4451 70.4511 86.4844 69.8222 86.5597C67.8508 86.8244 66.7663 86.9985 65.3512 86.994C64.2355 86.9896 62.8578 86.9124 62.8489 86.2729C62.8444 85.9602 63.3 85.6804 63.8532 85.517C64.4311 85.3518 65.0485 85.2942 65.6621 85.2878C66.7663 85.2878 67.84 85.429 68.962 85.5987C69.1334 85.6253 69.48 85.6734 69.6533 85.6734C69.9197 85.6734 70.0223 85.5632 70.0223 85.4202C70.0223 85.1619 69.624 85.001 69.3042 84.8953C68.4019 84.6085 66.7574 84.3553 65.1199 84.3553C64.8376 84.3553 64.5534 84.3553 64.2686 84.3775C63.1333 84.4281 62.0045 84.6706 60.9156 84.9991C59.829 85.3315 58.7868 85.7772 57.7824 86.1185C57.2779 86.2818 56.5225 86.4869 55.9869 86.4869C55.378 86.4869 55.0981 86.2027 55.0981 85.8323C55.0981 85.2549 55.9025 84.8029 57.2268 84.5053C57.2268 84.5053 57.8668 84.373 58.078 84.3268C58.3957 84.2559 58.5069 84.1768 58.5069 84.0248C58.5069 83.8507 58.349 83.7007 58.0557 83.5836C57.5802 83.3943 56.9336 83.3588 56.3669 83.3366C54.4092 83.3063 52.4604 83.6431 50.6115 83.6697C47.7139 83.714 46.3739 82.839 46.3739 81.6134C46.3739 81.5868 46.3805 81.5627 46.3805 81.5361C47.5983 81.4633 48.9316 81.2386 49.6293 80.7777C53.5603 82.0825 57.6224 82.9492 61.7045 83.6013C61.7911 83.6146 61.8734 83.5576 61.8867 83.469C61.9 83.3835 61.8422 83.3018 61.7534 83.2885C57.7135 82.6358 53.8003 81.8052 49.9271 80.52C50.0471 80.3763 50.1182 80.2155 50.1182 80.0351C50.1182 79.5147 49.6027 79.2614 48.8005 79.2614C48.2827 79.2614 47.7339 79.4286 47.3694 79.5894C45.6095 78.8999 43.894 78.113 42.2673 77.1912C42.4473 77.0836 42.6163 76.9399 42.7207 76.7309C42.7673 76.6246 42.794 76.5144 42.794 76.4024C42.794 75.6971 41.8585 75.3065 40.6474 75.3065C40.2385 75.3065 39.7941 75.3774 39.5163 75.4369C39.1208 75.1526 38.7297 74.8614 38.3497 74.5575C37.1764 73.6136 36.1076 72.5867 35.1365 71.4668C35.5987 71.2705 35.872 70.9046 35.872 70.4595C35.872 69.5979 34.8987 68.7818 33.261 68.7818C33.2166 68.7818 33.1743 68.7863 33.1299 68.7888C32.3055 67.508 31.5855 66.1216 30.9766 64.6091C30.5233 63.4828 30.1522 62.3829 29.8433 61.2852C29.9189 61.2918 29.99 61.3028 30.0677 61.3028C30.8055 61.3028 31.3811 60.9303 31.3811 60.2867C31.3811 59.4336 30.5099 58.8362 29.25 58.7965C28.8945 56.9273 28.7212 55.0206 28.7034 52.9728C28.7034 50.806 28.9567 48.7009 29.3589 47.3541C30.1433 47.4841 30.9077 47.742 31.6633 48.0308C32.7788 48.4584 34.1298 49.0492 35.3898 49.4305C35.4409 50.2042 35.4365 50.9956 35.3898 51.7648C35.272 53.8457 35.0476 55.942 35.0276 58.0691C34.9853 60.194 35.1943 62.3631 35.8009 64.4572C37.2008 69.2472 40.3563 72.3025 43.4473 74.6189C45.1561 75.8972 47.0094 76.9513 48.9005 77.899C48.9738 77.9364 49.0671 77.9079 49.1072 77.8351C49.1471 77.7604 49.1205 77.6673 49.0449 77.628C45.1228 75.5141 41.8763 72.9767 39.6719 69.5713C38.6675 68.05 37.7631 66.1171 37.0564 64.0805C36.4609 62.1493 36.1765 60.1125 36.0698 58.0471C35.9565 55.9795 36.0365 53.8876 36.0098 51.7736C35.9987 51.0418 35.9675 50.3012 35.8898 49.5672C36.6298 49.7612 37.3986 49.8912 38.1897 49.889C42.0718 49.8735 43.5918 47.4091 43.4385 45.0946C43.4829 45.0946 43.5251 45.0946 43.5718 45.0946C46.1939 45.0946 49.0404 43.9528 49.7982 41.9557C50.0338 41.969 50.3182 41.98 50.5115 41.98C52.5003 41.98 54.4114 41.1512 55.1469 39.628C55.518 39.6964 56.0291 39.7471 56.5269 39.7471C58.2002 39.7471 59.889 39.0792 60.5578 38.0211C61.2112 38.2635 62.0289 38.4355 62.9111 38.4355C64.8956 38.4355 66.4178 37.6552 67.3398 36.5134C67.689 37.5031 68.704 38.0255 69.8732 38.0145C70.1707 38.0123 70.4708 37.9704 70.7639 37.8976C70.8442 37.8756 70.9264 37.847 71.0131 37.8095C71.375 37.9461 71.7821 38.0145 72.1886 38.0145C73.4088 38.0145 74.2887 37.3444 74.6309 36.4164C75.335 37.4237 76.3748 38.0211 77.6504 38.2856C78.2927 38.4178 78.9528 38.4532 79.597 38.42C80.0972 38.4002 80.5993 38.3341 81.0905 38.2062C81.657 39.1849 83.204 40.0182 85.4436 40.0182C85.8839 40.0182 86.2548 39.9873 86.639 39.919C87.315 41.2371 89.4438 42.2732 92.0415 42.1982C92.2327 42.1916 92.4257 42.174 92.6169 42.1542C92.6392 42.2115 92.657 42.2687 92.6838 42.3239C93.3949 43.8426 95.4809 44.9712 98.1723 44.9712C98.2565 44.9712 98.3386 44.9668 98.4234 44.9646C98.4234 44.9998 98.4234 45.033 98.4234 45.0682C98.4387 48.3173 101.172 49.889 104.132 49.889C104.754 49.889 105.383 49.8009 106.008 49.6575C105.914 50.601 105.905 51.551 105.901 52.4746C105.867 54.5489 105.901 56.6253 105.779 58.6621C105.672 60.6989 105.347 62.6783 104.672 64.5654C102.206 71.2642 97.3925 75.1482 92.4971 77.7382C92.4257 77.7756 92.3971 77.8636 92.4346 77.9345C92.4722 78.0066 92.5614 78.0377 92.6347 78.0003C99.4945 74.5924 103.979 70.1772 105.867 64.9839C106.612 62.967 106.894 60.7959 106.885 58.6951C106.872 56.59 106.696 54.5246 106.572 52.4592C106.514 51.4739 106.443 50.504 106.499 49.5385C108.758 48.9235 110.918 47.6825 112.388 47.2946C112.818 48.6171 113.069 50.2681 113.116 51.8816C113.134 54.1741 113.009 56.4776 112.654 58.7436C111.552 58.8583 110.64 59.5372 110.64 60.3417C110.64 61.0626 111.267 61.2874 111.923 61.2874C111.998 61.2874 112.074 61.2742 112.149 61.2676C111.923 62.2 111.65 63.1235 111.323 64.0298C110.709 65.7398 109.914 67.389 108.914 68.9097C107.439 68.9452 106.245 69.5998 106.241 70.5235C106.241 70.9844 106.499 71.306 106.93 71.482C106.125 72.3949 105.256 73.2521 104.323 74.0346C103.745 74.5151 103.143 74.9627 102.527 75.3926C102.085 75.3046 101.628 75.2628 101.19 75.2628C100.17 75.2628 99.2989 75.6154 99.2989 76.3118C99.2989 76.6031 99.4569 76.8804 99.8385 77.0836C98.1653 78.0225 96.4144 78.829 94.6233 79.528C94.5526 79.495 94.4831 79.457 94.4124 79.4311C93.9855 79.2659 93.5414 79.1709 93.01 79.1709C92.2014 79.1709 91.7548 79.5083 91.7548 80.0059C91.7548 80.1826 91.8236 80.3459 91.9504 80.4934C88.5078 81.633 84.9568 82.4484 81.3906 83.1277C81.297 83.1455 81.2351 83.2354 81.253 83.3284C81.2708 83.4208 81.3613 83.4804 81.455 83.4626C85.104 82.7707 88.7346 81.935 92.2613 80.7555C92.7188 81.06 93.4458 81.2823 94.2812 81.4171C94.759 81.4943 95.2477 81.545 95.739 81.5735C95.739 81.5868 95.739 81.602 95.739 81.6153ZM107.221 71.1515C106.756 71.0635 106.59 70.8096 106.586 70.5235C106.586 69.829 107.474 69.3086 108.674 69.2668C108.619 69.3465 108.567 69.4276 108.512 69.5074C108.11 70.0784 107.674 70.6229 107.221 71.154V71.1515ZM108.812 69.7125C108.914 69.5688 109.012 69.4212 109.112 69.2737C109.665 69.32 110.307 69.5029 110.607 69.8315C110.612 69.8359 110.616 69.8423 110.621 69.8467C109.636 70.6843 108.721 71.1585 107.683 71.18C108.078 70.7039 108.459 70.217 108.814 69.7099L108.812 69.7125ZM102.639 75.7566C103.068 75.882 103.49 76.063 103.821 76.3226C103.519 76.429 103.214 76.5258 102.903 76.6075C102.316 76.7613 101.721 76.8671 101.123 76.8804C101.048 76.8804 100.978 76.8804 100.91 76.8804C101.499 76.5258 102.074 76.1485 102.639 75.7566ZM100.31 76.8209C99.8653 76.7284 99.641 76.5391 99.6391 76.3011C99.6321 75.7674 100.43 75.5445 101.126 75.5445C101.486 75.5445 101.825 75.58 102.17 75.6465C101.563 76.0586 100.943 76.4505 100.31 76.8209ZM93.4637 79.9711C93.0967 80.1053 92.7258 80.2313 92.3569 80.3567C92.2034 80.244 92.1122 80.1186 92.1122 79.9819C92.1122 79.671 92.4034 79.4507 92.9858 79.4507C93.4369 79.4507 93.8543 79.5387 94.2232 79.6824C93.9702 79.7793 93.7192 79.8787 93.4656 79.9711H93.4637ZM94.6565 79.8914C95.0923 80.1452 95.4211 80.4801 95.5925 80.8309C95.6033 80.8524 95.6103 80.8771 95.6211 80.8992C95.1834 80.9056 94.7546 80.9037 94.35 80.8745C93.7147 80.8264 93.1769 80.7207 92.7832 80.577C93.0501 80.4846 93.3165 80.3966 93.5835 80.2997C93.9435 80.1693 94.3009 80.0306 94.6565 79.8914ZM104.41 77.2862C104.41 78.4409 103.201 79.2234 101.521 79.8565C99.9966 80.4339 97.9678 80.8087 96.0875 80.8904C96.0499 80.8017 96.0053 80.7137 95.9544 80.6346C95.7212 80.2573 95.3968 79.973 95.0368 79.7508C96.8343 79.0386 98.5942 78.2118 100.274 77.2507C100.603 77.3413 101.027 77.3944 101.565 77.3944C102.403 77.3944 103.363 77.233 104.339 76.9665C104.381 77.0703 104.41 77.1779 104.41 77.2881V77.2862ZM110.392 71.9606C110.07 72.4145 109.659 72.8222 109.216 73.204C108.774 73.5876 108.307 73.9555 107.812 74.2929C107.316 74.6297 106.794 74.9317 106.265 75.2248C105.632 75.5648 104.974 75.8712 104.301 76.1352C103.945 75.8554 103.49 75.6484 102.992 75.5053C103.525 75.1216 104.05 74.7291 104.556 74.3081C105.549 73.4749 106.481 72.5665 107.334 71.5902C107.505 71.6213 107.685 71.6409 107.885 71.6409C109.012 71.6364 110.01 71.1338 110.885 70.5589C110.896 71.0325 110.697 71.5351 110.392 71.9606ZM112.872 67.1928C112.274 68.0899 111.765 68.7641 111.023 69.4808C110.649 69.1699 110.096 68.9604 109.35 68.9141C110.31 67.4238 111.081 65.8151 111.678 64.1533C112.025 63.1831 112.314 62.1999 112.552 61.2036C113.341 61.0251 114.149 60.5512 114.807 59.9978C115.003 60.3373 115.11 60.7605 115.111 61.2676C115.123 62.74 114.394 64.9269 112.874 67.1902L112.872 67.1928Z" fill="white"/>
<path fill-rule="evenodd" clip-rule="evenodd" d="M40.9454 61.2961C41.4675 72.9742 54.496 81.2601 71.1354 81.2867C87.777 81.2626 100.806 72.9723 101.321 61.2917C101.865 49.8228 89.7414 40.2098 71.131 40.0225C52.5206 40.2187 40.3943 49.8293 40.9476 61.2961M100.875 61.3159C100.428 71.5814 88.1459 79.8008 71.1354 79.8255C54.1271 79.8033 41.8409 71.5788 41.3898 61.3181C40.9121 51.2401 52.1739 41.7661 71.131 41.5963C90.0905 41.7639 101.348 51.2357 100.877 61.3181" fill="white"/>
<path d="M65.7232 45.5024C64.1965 45.5024 63.3235 46.5406 63.3235 47.9249C63.3235 49.3092 64.2169 50.354 65.7232 50.354C67.2301 50.354 68.1457 49.3158 68.1457 47.9514C68.1457 46.5869 67.2569 45.5002 65.7232 45.5002M65.7079 49.4216C64.9235 49.4216 64.3393 48.8617 64.3393 47.9271C64.3393 46.9925 64.8904 46.4392 65.7079 46.4392C66.5254 46.4392 67.132 46.9771 67.132 47.9822C67.132 48.6567 66.6853 49.4216 65.7079 49.4216Z" fill="white"/>
<path d="M73.5554 49.3861L70.8506 49.3927V45.9056C70.8506 45.7006 70.9889 45.5308 70.9889 45.5308H69.7222C69.7222 45.5308 69.8598 45.7094 69.8598 45.9056V49.8975C69.8598 50.0959 69.7222 50.2723 69.7222 50.2723H73.7822L73.9396 49.3839H73.9351L73.9663 49.2054C73.9663 49.2054 73.7529 49.3839 73.5528 49.3839" fill="white"/>
<path d="M76.9369 45.5243L74.9795 45.5309C74.9795 45.5309 75.1171 45.7073 75.1171 45.9057V49.8998C75.1171 50.0982 74.9795 50.2745 74.9795 50.2745H76.9681C78.317 50.2745 79.4237 49.5317 79.4237 47.9204C79.4237 46.309 78.4661 45.5243 76.9369 45.5243ZM76.9127 49.3796H76.0996V46.4237H76.9127C77.9856 46.4237 78.3992 46.9284 78.3992 47.9181C78.3992 48.7911 77.9461 49.3796 76.9127 49.3796Z" fill="white"/>
<path d="M59.3378 70.8299C59.7044 70.5893 59.8644 70.2873 59.8688 69.8441C59.88 68.8439 59.3422 68.4247 58.3067 68.4311C57.6978 68.4311 57.0023 68.4311 56.3934 68.4311C56.129 68.4311 55.8668 68.4311 55.6023 68.4311V72.9989C56.4579 73.2565 57.32 73.4927 58.1867 73.7085C59.3022 73.9928 60.0644 73.4813 60.0644 72.3088C60.0644 71.4953 59.7755 71.0812 59.3378 70.8318M58.6533 69.8885C58.6511 70.2721 58.6222 70.5235 58.0711 70.4988C57.6334 70.4817 57.1467 70.4639 56.6823 70.4418V69.2357C56.6823 69.2357 57.6378 69.2446 58.0756 69.249C58.6134 69.2535 58.6555 69.5181 58.6533 69.8859M58.2356 72.7956C57.7223 72.6855 56.6823 72.45 56.6823 72.45V71.1914C56.6823 71.1914 57.7334 71.2857 58.2467 71.3281C58.8467 71.3743 58.8822 71.7529 58.8778 72.2005C58.8733 72.6152 58.8245 72.9216 58.2356 72.7937" fill="white"/>
<path d="M65.1127 72.0087C66.1284 71.713 66.568 71.085 66.575 70.2316C66.5833 68.9622 65.8461 68.4285 64.726 68.4311C63.804 68.4311 62.6482 68.4311 61.7349 68.4311C61.7349 70.4348 61.7349 72.4272 61.7393 74.4309C62.1349 74.5018 62.526 74.5676 62.9238 74.6297C62.9238 73.7959 62.9238 72.8437 62.9238 72.015C63.1482 72.0264 63.566 72.0505 63.7925 72.0593C63.797 72.0682 64.4348 72.1207 64.4393 72.1296M66.1927 73.9947C65.9035 73.5319 65.4772 72.4164 65.2638 71.9226L63.9684 71.9447C64.3284 72.8089 64.6527 73.6769 64.9745 74.2549C65.3791 74.9887 65.7945 75.1849 66.3215 75.2178C66.719 75.2425 66.9127 75.1564 66.9127 75.1564L66.9038 74.3847C66.6056 74.4486 66.4304 74.3695 66.1927 73.9947ZM64.4284 71.0983C63.9926 71.0939 63.3526 71.0806 62.9215 71.0717C62.9215 70.5494 62.9215 69.9543 62.9215 69.432C63.3482 69.4428 64.006 69.458 64.4367 69.4693C65.0484 69.4801 65.3058 69.727 65.2994 70.2696C65.295 70.7919 65.0172 71.1027 64.4284 71.0983Z" fill="white"/>
<path d="M72.9501 75.3242C73.3591 75.3172 73.9434 75.2888 74.3525 75.2577L71.7566 68.4336H70.2344L67.8081 75.2027C68.2057 75.2444 68.7014 75.278 69.1213 75.2888L69.8611 73.1483C70.2255 73.4218 70.6212 73.682 71.0054 73.9067C71.3743 73.6864 71.8057 73.3996 72.1523 73.1483L72.9501 75.3242ZM71.0054 72.6792C70.741 72.5291 70.4345 72.3417 70.2058 72.1587L70.9704 69.9455L71.7879 72.1524C71.561 72.3392 71.2679 72.5221 71.0054 72.6792Z" fill="white"/>
<path d="M79.188 68.4311C79.2014 69.7074 79.2148 71.0388 79.2256 72.1366L76.726 68.433H75.4548C75.4682 70.6792 75.4835 72.9279 75.4969 75.1742C75.8658 75.1476 76.266 75.1165 76.6279 75.0811C76.617 73.5623 76.6056 71.9555 76.5947 70.6507L79.4238 74.7443C79.7525 74.6955 80.0813 74.6449 80.4101 74.5898C80.3878 72.5373 80.3655 70.4855 80.3432 68.4355C79.9679 68.4355 79.5588 68.4355 79.1899 68.4355L79.188 68.4311Z" fill="white"/>
<path d="M84.5701 68.4222L82.377 68.4311C82.377 68.4311 82.5369 68.6584 82.5394 68.8939C82.5573 70.4836 82.5751 72.0878 82.5923 73.675C82.5949 73.9111 82.4413 74.1555 82.4413 74.1555C82.4923 74.1448 82.5458 74.1334 82.5968 74.1226C82.9727 74.0479 83.3461 73.9662 83.7195 73.8826C83.7526 73.8757 83.7857 73.8694 83.8195 73.8605C84.0572 73.8054 84.0814 73.8187 84.3216 73.7592C86.2057 73.2761 87.199 72.4917 87.2016 70.7058C87.2016 69.1781 86.379 68.4444 84.5726 68.4248M84.2458 72.7671C83.9947 72.8153 83.9571 72.8153 83.7061 72.8615C83.6946 71.7352 83.6838 70.5849 83.6723 69.4586C83.9234 69.4497 84.0546 69.4428 84.3082 69.4364C85.5481 69.4117 86.0216 69.7865 86.0279 70.8736C86.0324 71.903 85.4838 72.5114 84.2458 72.7671Z" fill="white"/>
<path fill-rule="evenodd" clip-rule="evenodd" d="M66.5312 57.5908C66.5312 59.9009 68.5804 61.8936 71.6133 61.8936C74.3487 61.8936 76.7017 60.2977 76.7017 57.5908C76.7017 54.884 74.1601 53.1381 71.6133 53.1381C69.0665 53.1381 66.5312 54.8376 66.5312 57.5908ZM73.2687 55.7215V59.4248C73.2687 60.4387 72.6334 61.2521 71.6133 61.2521C70.5932 61.2521 69.9669 60.4387 69.9669 59.4248V55.7215C69.9669 54.6547 70.3224 53.8149 71.6133 53.8149C73.0355 53.8149 73.2687 54.6547 73.2687 55.7215Z" fill="white"/>
<path fill-rule="evenodd" clip-rule="evenodd" d="M70.1719 64.6028C70.1719 65.2992 70.8231 65.8987 71.6119 65.8987C72.4007 65.8987 73.0653 65.3302 73.0653 64.6028C73.0653 63.8753 72.3848 63.3019 71.6119 63.3019C70.8384 63.3019 70.1719 63.9038 70.1719 64.6028Z" fill="white"/>
<path fill-rule="evenodd" clip-rule="evenodd" d="M53.4363 56.57L59.6183 65.2441H64.1647L63.5315 64.3248V55.5935C63.5315 54.3547 63.9984 53.6934 64.7961 53.4531H64.9114V53.301H60.9427V53.4531H61.0627C61.8182 53.7044 62.3315 54.2864 62.3315 55.5935V62.5282L55.7784 53.3055H50.6853C51.543 54.2577 52.2385 55.1879 52.2385 55.9462C52.2385 57.8441 52.2363 62.9624 52.2363 62.9624C52.2363 64.2014 51.7697 64.8623 50.9719 65.1029H50.8564V65.2548H54.8251V65.1029H54.7051C53.9496 64.8516 53.4363 64.2698 53.4363 62.9624V56.57Z" fill="white"/>
<path d="M92.6894 53.6274C92.6894 53.3717 92.6716 53.202 92.46 53.0763C92.1249 53.2857 91.8229 53.4819 91.3182 53.6075C89.696 53.9448 88.0317 53.2329 86.8007 52.9837C86.047 52.8294 85.1027 52.8317 84.3871 52.997C82.8184 53.3805 82.1832 53.1777 82.0876 52.7302C82.043 52.7302 81.7097 52.7214 81.7097 52.7214L80.7432 57.4122C80.7432 57.4122 81.1165 57.421 81.1452 57.421C81.5428 56.601 82.1609 56.2174 83.0007 56.2174C83.9717 56.2174 84.8873 56.7729 86.1763 56.7729C86.874 56.7729 87.8782 56.6164 88.8913 56.169C88.9072 56.1623 88.925 56.1535 88.9403 56.1447L89.0117 56.235C88.8008 56.8809 82.9586 58.986 82.9586 62.687C82.9586 64.0494 83.7672 65.7468 86.5694 65.7468C90.2695 65.7468 90.8162 62.5173 90.0891 61.5804C89.7049 61.9816 89.3207 62.1602 88.7097 62.1602C88.098 62.1602 87.4959 61.8009 87.4959 60.8376C87.4959 58.2917 92.6913 55.2718 92.6913 53.6274" fill="white"/>
</g>
<defs>
<clipPath id="clip0_20_3403">
<rect width="144" height="88" fill="white"/>
</clipPath>
</defs>
</svg>
