<svg width="56" height="56" viewBox="0 0 56 56" fill="none" xmlns="http://www.w3.org/2000/svg">
<path d="M36.7906 19.9528C36.6049 19.8567 36.424 19.7515 36.2488 19.6374C35.7392 19.3005 35.272 18.9036 34.8572 18.4551C33.8194 17.2676 33.4318 16.0629 33.289 15.2195H33.2947C33.1755 14.5194 33.2248 14.0664 33.2322 14.0664H28.5053V32.3447C28.5053 32.5901 28.5053 32.8327 28.4949 33.0723C28.4949 33.1022 28.4921 33.1297 28.4904 33.1618C28.4904 33.175 28.4904 33.1887 28.4875 33.2025C28.4875 33.2059 28.4875 33.2094 28.4875 33.2128C28.4377 33.8686 28.2274 34.5022 27.8753 35.0577C27.5232 35.6132 27.0399 36.0736 26.468 36.3985C25.872 36.7376 25.1979 36.9155 24.5122 36.9146C22.3099 36.9146 20.5249 35.1187 20.5249 32.9009C20.5249 30.6831 22.3099 28.8872 24.5122 28.8872C24.9291 28.8868 25.3435 28.9524 25.7398 29.0816L25.7456 24.2686C24.5422 24.1132 23.3198 24.2088 22.1553 24.5495C20.9907 24.8901 19.9095 25.4685 18.9796 26.2479C18.1649 26.9558 17.48 27.8005 16.9556 28.7439C16.7561 29.0879 16.0032 30.4703 15.912 32.714C15.8547 33.9875 16.2372 35.3068 16.4195 35.8521V35.8636C16.5342 36.1847 16.9785 37.2804 17.7027 38.2041C18.2867 38.9451 18.9766 39.596 19.7503 40.1358V40.1244L19.7617 40.1358C22.0501 41.6909 24.5873 41.5888 24.5873 41.5888C25.0265 41.571 26.4978 41.5888 28.1687 40.797C30.0219 39.9191 31.0769 38.6112 31.0769 38.6112C31.7509 37.8297 32.2868 36.9392 32.6617 35.9777C33.0895 34.8533 33.2322 33.5047 33.2322 32.9657V23.2686C33.2896 23.303 34.0533 23.8082 34.0533 23.8082C34.0533 23.8082 35.1536 24.5134 36.8703 24.9727C38.102 25.2996 39.7613 25.3684 39.7613 25.3684V20.6758C39.1799 20.7389 37.9993 20.5554 36.7906 19.9528Z" fill="white"/>
</svg>
