<svg width="56" height="56" viewBox="0 0 56 56" fill="none" xmlns="http://www.w3.org/2000/svg">
<path d="M14 40.9634L16.0089 33.4937C14.3888 30.5838 13.874 27.1883 14.5592 23.9302C15.2443 20.672 17.0834 17.7698 19.7388 15.7561C22.3943 13.7424 25.6882 12.7523 29.0159 12.9674C32.3436 13.1825 35.482 14.5885 37.8552 16.9273C40.2284 19.2661 41.6772 22.3808 41.9357 25.7C42.1942 29.0191 41.2451 32.32 39.2626 34.9969C37.2801 37.6739 34.3971 39.5473 31.1427 40.2734C27.8883 40.9995 24.4808 40.5295 21.5454 38.9499L14 40.9634ZM21.9092 36.1546L22.3758 36.431C24.502 37.6891 26.9853 38.2098 29.4388 37.9118C31.8923 37.6138 34.1781 36.5139 35.9401 34.7835C37.7021 33.0532 38.8412 30.7895 39.18 28.3453C39.5188 25.9011 39.0381 23.4137 37.813 21.2707C36.5879 19.1276 34.6872 17.4494 32.4069 16.4975C30.1267 15.5455 27.5951 15.3734 25.2066 16.0078C22.8181 16.6423 20.7069 18.0477 19.2021 20.0051C17.6972 21.9625 16.8832 24.3619 16.8869 26.8294C16.8849 28.8753 17.4516 30.8817 18.5241 32.6251L18.8167 33.1068L17.6936 37.2759L21.9092 36.1546Z" fill="white"/>
<path fill-rule="evenodd" clip-rule="evenodd" d="M33.2326 28.747C32.9591 28.5267 32.6387 28.3717 32.2961 28.2937C31.9534 28.2157 31.5975 28.2168 31.2553 28.2969C30.7412 28.5101 30.409 29.3155 30.0768 29.7182C30.0068 29.8148 29.9039 29.8825 29.7874 29.9086C29.6709 29.9348 29.5488 29.9176 29.4441 29.8604C27.562 29.1244 25.9844 27.7748 24.9675 26.0308C24.8808 25.9219 24.8397 25.7837 24.853 25.6453C24.8663 25.5069 24.9328 25.379 25.0387 25.2885C25.4092 24.9224 25.6812 24.4688 25.8296 23.9699C25.8625 23.4195 25.7363 22.8713 25.4658 22.3907C25.2567 21.7168 24.8587 21.1167 24.3189 20.6614C24.0405 20.5364 23.7318 20.4945 23.4301 20.5407C23.1284 20.587 22.8465 20.7194 22.6185 20.922C22.2226 21.263 21.9084 21.6883 21.6989 22.1666C21.4895 22.6449 21.3902 23.164 21.4084 23.6856C21.4096 23.9786 21.4468 24.2703 21.5191 24.5542C21.7027 25.2363 21.9852 25.8881 22.3575 26.4887C22.6261 26.9489 22.9191 27.3943 23.2354 27.8232C24.2632 29.2318 25.5552 30.4278 27.0397 31.3448C27.7846 31.8108 28.5808 32.1897 29.4125 32.474C30.2764 32.8649 31.2303 33.015 32.1728 32.9083C32.7098 32.8271 33.2186 32.6154 33.6544 32.2919C34.0902 31.9683 34.4397 31.5428 34.6721 31.0527C34.8086 30.7566 34.8501 30.4256 34.7907 30.1051C34.6484 29.4498 33.7704 29.0629 33.2326 28.747Z" fill="white"/>
</svg>
