<?xml version="1.0" standalone="no"?>
<!DOCTYPE svg PUBLIC "-//W3C//DTD SVG 1.1//EN" "http://www.w3.org/Graphics/SVG/1.1/DTD/svg11.dtd" >
<svg xmlns="http://www.w3.org/2000/svg" xmlns:xlink="http://www.w3.org/1999/xlink" version="1.1">
<metadata>
Created by FontForge 20201107 at Fri May  5 14:18:32 2017
 By 
Copyright (c) 2014, Impallari Type (www.impallari.com).
</metadata>
<defs>
<font id="Amiko-Bold" horiz-adv-x="640" >
  <font-face 
    font-family="Amiko"
    font-weight="700"
    font-stretch="normal"
    units-per-em="1000"
    panose-1="0 0 8 0 0 0 0 0 0 0"
    ascent="800"
    descent="-200"
    x-height="522"
    cap-height="696"
    bbox="-414 -406 1070 928"
    underline-thickness="50"
    underline-position="-100"
    unicode-range="U+000D-2212"
  />
<missing-glyph horiz-adv-x="770" 
d="M682 928v-1334h-595v1334h595zM624 -229v1099h-467zM612 -348l-467 1099v-1099h467z" />
    <glyph glyph-name="fi" unicode="fi" 
d="M101 424h-78v98h78v60q0 93 43 138.5t125 45.5q31 0 53 -6t43 -18v-109q-44 23 -79 23q-29 0 -41 -16.5t-12 -57.5v-60h122v-98h-122v-424h-132v424zM442 623q-24 23 -24 60t24 60t58 23t58 -23t24 -60t-24 -60t-58 -23t-58 23zM566 522v-522h-132v521z" />
    <glyph glyph-name="fl" unicode="fl" 
d="M101 424h-78v98h78v60q0 93 43 138.5t125 45.5q31 0 53 -6t43 -18v-109q-44 23 -79 23q-29 0 -41 -16.5t-12 -57.5v-60h122v-98h-122v-424h-132v424zM434 754h132v-754h-132v754z" />
    <glyph glyph-name=".notdef" horiz-adv-x="770" 
d="M682 928v-1334h-595v1334h595zM624 -229v1099h-467zM612 -348l-467 1099v-1099h467z" />
    <glyph glyph-name="uni0000" horiz-adv-x="0" 
 />
    <glyph glyph-name="uni0000" horiz-adv-x="0" 
 />
    <glyph glyph-name="nonmarkingreturn" unicode="&#xd;" horiz-adv-x="280" 
 />
    <glyph glyph-name="space" unicode=" " horiz-adv-x="280" 
 />
    <glyph glyph-name="exclam" unicode="!" horiz-adv-x="308" 
d="M88 754h132v-500h-132v500zM91.5 12.5q-25.5 24.5 -25.5 64.5t25.5 64.5t62.5 24.5t62.5 -24.5t25.5 -64.5t-25.5 -64.5t-62.5 -24.5t-62.5 24.5z" />
    <glyph glyph-name="quotedbl" unicode="&#x22;" horiz-adv-x="400" 
d="M224 696h132l-12 -262h-108zM44 696h132l-12 -262h-108z" />
    <glyph glyph-name="numbersign" unicode="#" horiz-adv-x="726" 
d="M583 433l-22 -170h126l-14 -109h-126l-19 -154h-126l19 154h-166l-19 -154h-126l19 154h-129l15 109h128l22 170h-127l16 109h125l19 154h126l-19 -154h166l19 154h126l-19 -154h129l-15 -109h-128zM457 433h-166l-22 -170h166z" />
    <glyph glyph-name="dollar" unicode="$" horiz-adv-x="594" 
d="M497.5 60q-52.5 -54 -143.5 -68v-108h-82v104q-57 3 -116.5 17.5t-111.5 38.5v128q128 -67 228 -70v207q-69 26 -109 46.5t-69 58.5t-29 97q0 80 55.5 131t151.5 63v107h82v-105q97 -5 174 -44v-125q-88 51 -174 55v-188q60 -22 100.5 -45.5t68 -63.5t27.5 -100
q0 -82 -52.5 -136zM218.5 473q18.5 -19 53.5 -35v150q-34 -7 -53 -24.5t-19 -44.5t18.5 -46zM414 188q0 28 -15.5 48.5t-44.5 36.5v-161q60 21 60 76z" />
    <glyph glyph-name="percent" unicode="%" horiz-adv-x="900" 
d="M68.5 348.5q-46.5 57.5 -46.5 151.5t46.5 151.5t143.5 57.5t143.5 -57.5t46.5 -151.5t-46.5 -151.5t-143.5 -57.5t-143.5 57.5zM775 696l-551 -696h-99l551 696h99zM273 411.5q20 34.5 20 88.5q0 53 -20.5 88t-60.5 35t-60.5 -35t-20.5 -88q0 -54 20 -88.5t61 -34.5
t61 34.5zM544.5 44.5q-46.5 57.5 -46.5 151.5t46.5 151.5t143.5 57.5t143.5 -57.5t46.5 -151.5t-46.5 -151.5t-143.5 -57.5t-143.5 57.5zM749 107.5q20 34.5 20 88.5q0 53 -20.5 88t-60.5 35t-60.5 -35t-20.5 -88q0 -54 20 -88.5t61 -34.5t61 34.5z" />
    <glyph glyph-name="ampersand" unicode="&#x26;" horiz-adv-x="682" 
d="M513 0l-58 59q-87 -71 -195 -71q-68 0 -122.5 26.5t-85 73t-30.5 106.5q0 116 124 202q-30 60 -30 121q0 88 60.5 139.5t158.5 51.5q50 0 88.5 -14.5t78.5 -45.5v-121q-35 33 -75 50t-81 17q-45 0 -70 -21t-25 -60q0 -40 26 -84t78 -97l106 -108q33 45 74 122h4l77 -70
q-37 -75 -78 -129l144 -147h-169zM378 137l-167 169l-3 3q-48 -46 -48 -107q0 -50 29 -77.5t78 -27.5q58 0 111 40z" />
    <glyph glyph-name="quotesingle" unicode="'" horiz-adv-x="220" 
d="M44 696h132l-12 -262h-108z" />
    <glyph glyph-name="parenleft" unicode="(" horiz-adv-x="352" 
d="M94.5 79q-50.5 121 -50.5 266q0 299 208 477l63 -68q-71 -79 -101.5 -180.5t-30.5 -230.5q0 -124 29.5 -225t103.5 -176l-64 -68q-107 84 -157.5 205z" />
    <glyph glyph-name="parenright" unicode=")" horiz-adv-x="352" 
d="M37 -58q71 79 101.5 180.5t30.5 230.5q0 124 -29.5 225t-103.5 176l64 68q107 -84 157.5 -205t50.5 -266q0 -299 -208 -477z" />
    <glyph glyph-name="asterisk" unicode="*" horiz-adv-x="374" 
d="M118 457l-69 52l99 93l-1 3l-125 11l23 90l116 -59l3 2l-23 125h94l-25 -126l3 -2l117 59l22 -90l-124 -11l-1 -3l98 -93l-69 -52l-67 119h-4z" />
    <glyph glyph-name="plus" unicode="+" horiz-adv-x="594" 
d="M528 293h-173v-193h-116v193h-173v106h173v193h116v-193h173v-106z" />
    <glyph glyph-name="comma" unicode="," horiz-adv-x="260" 
d="M202 150q0 -67 -18 -138t-64 -162h-132q33 60 48 112.5t18.5 93t3.5 94.5h144z" />
    <glyph glyph-name="hyphen" unicode="-" horiz-adv-x="400" 
d="M330 323v-106h-260v106h260z" />
    <glyph glyph-name="period" unicode="." horiz-adv-x="260" 
d="M66 13q-26 25 -26 66t26 66t64 25t64 -25t26 -66t-26 -66t-64 -25t-64 25z" />
    <glyph glyph-name="slash" unicode="/" horiz-adv-x="352" 
d="M352 754l-229 -986h-123l228 986h124z" />
    <glyph glyph-name="zero" unicode="0" horiz-adv-x="620" 
d="M102 86.5q-67 98.5 -67 261.5t67 261.5t208 98.5t208 -98.5t67 -261.5t-67 -261.5t-208 -98.5t-208 98.5zM414 169q32 68 32 179t-32 179t-104 68t-104 -68t-32 -179t32 -179t104 -68t104 68z" />
    <glyph glyph-name="one" unicode="1" horiz-adv-x="620" 
d="M553 116v-116h-486v116h195v426l-128 -56h-4l-28 85v4l199 121h93v-580h159z" />
    <glyph glyph-name="two" unicode="2" horiz-adv-x="620" 
d="M547 117v-117h-474v100l223 234q55 57 76 95t21 73q0 92 -114 92q-47 0 -94.5 -14t-90.5 -42v121q88 49 191 49q111 0 176.5 -52t65.5 -143q0 -104 -94 -208l-171 -188h285z" />
    <glyph glyph-name="three" unicode="3" horiz-adv-x="620" 
d="M524.5 291.5q28.5 -45.5 28.5 -100.5q0 -61 -34 -107t-96 -71t-141 -25q-58 0 -110.5 14t-104.5 43v129h4q104 -72 206 -72q64 0 102 25.5t38 70.5q0 49 -43 79.5t-116 30.5h-42v110h42q68 0 107 25t39 69q0 39 -32.5 60t-90.5 21q-45 0 -90.5 -14t-99.5 -44h-4v124
q95 49 200 49q114 0 182.5 -49.5t68.5 -134.5q0 -50 -24.5 -91.5t-68.5 -68.5q51 -27 79.5 -72.5z" />
    <glyph glyph-name="four" unicode="4" horiz-adv-x="620" 
d="M579 152h-96v-152h-132v152h-312v103l312 441h132v-431h96v-113zM351 265v245l-158 -245h158z" />
    <glyph glyph-name="five" unicode="5" horiz-adv-x="620" 
d="M453 408q52 -29 81 -80t29 -114q0 -68 -34 -119t-96 -78.5t-144 -27.5q-63 0 -124 16.5t-108 47.5v128h4q45 -35 108 -57t117 -22q64 0 103 31.5t39 82.5q0 48 -33.5 78t-87.5 30q-72 0 -137 -53h-4l-87 27v5l45 393h406v-115h-296l-19 -170q57 26 119 26q67 0 119 -29z
" />
    <glyph glyph-name="six" unicode="6" horiz-adv-x="620" 
d="M457 418.5q55 -28.5 85 -80t30 -117.5q0 -69 -32.5 -122t-90.5 -82t-131 -29q-130 0 -200 90t-70 252q0 117 36 202t103 130.5t159 45.5q105 0 195 -56v-121h-4q-42 32 -91 48.5t-91 16.5q-69 0 -110.5 -48.5t-52.5 -140.5q31 21 64.5 30.5t73.5 9.5q72 0 127 -28.5z
M400.5 133q33.5 33 33.5 86q0 50 -30.5 82.5t-85.5 32.5q-61 0 -130 -40q5 -95 37 -144.5t91 -49.5q51 0 84.5 33z" />
    <glyph glyph-name="seven" unicode="7" horiz-adv-x="620" 
d="M553 696v-67l-269 -629h-121l-24 4l260 577h-309v115h463z" />
    <glyph glyph-name="eight" unicode="8" horiz-adv-x="620" 
d="M172 14q-61 26 -95 73t-34 106q0 57 31.5 102t79.5 63q-45 15 -71.5 60t-26.5 98q0 57 32.5 101t90.5 67.5t131 23.5q74 0 131.5 -23.5t90 -67t32.5 -100.5q0 -53 -27 -98t-72 -61q53 -19 82.5 -64.5t29.5 -100.5q0 -60 -34 -106.5t-94.5 -72.5t-137.5 -26q-78 0 -139 26
zM398.5 438.5q31.5 23.5 31.5 67.5t-31 68t-89 24t-89 -24t-31 -68t31 -67.5t89 -23.5q57 0 88.5 23.5zM407 126q34 27 34 75q0 49 -34 75.5t-97 26.5q-62 0 -96.5 -26.5t-34.5 -75.5t34 -75.5t97 -26.5t97 27z" />
    <glyph glyph-name="nine" unicode="9" horiz-adv-x="620" 
d="M503.5 621q66.5 -87 66.5 -257q0 -185 -77 -280.5t-226 -95.5q-52 0 -96 12.5t-90 41.5v123h4q42 -30 91 -46t95 -16q72 0 110 46t47 144q-59 -39 -141 -39q-110 0 -173.5 60.5t-63.5 161.5q0 71 31.5 123.5t89.5 80.5t134 28q132 0 198.5 -87zM219 397.5
q31 -30.5 85 -30.5q62 0 126 41q-5 97 -35.5 141.5t-90.5 44.5q-53 0 -84.5 -30.5t-31.5 -83.5q0 -52 31 -82.5z" />
    <glyph glyph-name="colon" unicode=":" horiz-adv-x="260" 
d="M66 329q-26 25 -26 66t26 66t64 25t64 -25t26 -66t-26 -66t-64 -25t-64 25zM66 13q-26 25 -26 66t26 66t64 25t64 -25t26 -66t-26 -66t-64 -25t-64 25z" />
    <glyph glyph-name="semicolon" unicode=";" horiz-adv-x="260" 
d="M66 329q-26 25 -26 66t26 66t64 25t64 -25t26 -66t-26 -66t-64 -25t-64 25zM202 150q0 -67 -18 -138t-64 -162h-132q33 60 48 112.5t18.5 93t3.5 94.5h144z" />
    <glyph glyph-name="less" unicode="&#x3c;" horiz-adv-x="594" 
d="M528 586v-111l-324 -129l324 -129v-111l-462 192v96z" />
    <glyph glyph-name="equal" unicode="=" horiz-adv-x="594" 
d="M528 492v-96h-440v96h440zM528 284v-96h-440v96h440z" />
    <glyph glyph-name="greater" unicode="&#x3e;" horiz-adv-x="594" 
d="M66 106v111l324 129l-324 129v111l462 -192v-96z" />
    <glyph glyph-name="question" unicode="?" horiz-adv-x="550" 
d="M154 261q0 57 19 94.5t46 59t68 44.5q44 25 64.5 44.5t20.5 53.5q0 44 -38.5 68.5t-101.5 24.5q-95 0 -184 -57h-4v118q87 55 196 55q75 0 135 -24t95.5 -71t35.5 -114q0 -48 -18 -80.5t-44 -52t-67 -41.5q-46 -25 -68.5 -46t-22.5 -56v-27h-132v7zM156.5 12.5
q-25.5 24.5 -25.5 64.5t25.5 64.5t62.5 24.5t62.5 -24.5t25.5 -64.5t-25.5 -64.5t-62.5 -24.5t-62.5 24.5z" />
    <glyph glyph-name="at" unicode="@" horiz-adv-x="858" 
d="M570 254q-4 -23 -4 -44q0 -33 16 -54t48 -21q38 0 65 32.5t27 100.5q0 78 -37.5 140t-103.5 97.5t-150 35.5q-88 0 -155 -39t-103.5 -108.5t-36.5 -158.5q0 -87 35.5 -151t100.5 -98t150 -34q100 0 204 53h4v-87q-92 -53 -206 -53q-112 0 -198.5 47t-134 131.5
t-47.5 194.5q0 112 48.5 201t137 139.5t202.5 50.5t201 -49.5t134 -131t47 -174.5q0 -69 -25.5 -119t-67.5 -76t-92 -26q-42 0 -78.5 18t-56.5 54q-32 -33 -67 -50t-70 -17q-54 0 -82 40t-28 111q0 59 19.5 114t60 90t100.5 35q49 0 94 -26h74zM477 177q-2 16 -2 25
q0 18 3 37l17 115q-36 12 -60 12q-51 0 -71.5 -43.5t-20.5 -105.5q0 -40 10 -57t37 -17q43 0 87 34z" />
    <glyph glyph-name="A" unicode="A" horiz-adv-x="740" 
d="M516 158h-297l-58 -158h-132l264 696h154l264 -696h-137zM475 270l-107 296l-108 -296h215z" />
    <glyph glyph-name="B" unicode="B" horiz-adv-x="700" 
d="M601 297q28 -42 28 -102q0 -95 -69 -145t-200 -50h-257v696h269q113 0 174 -47.5t61 -135.5q0 -105 -88 -151q54 -23 82 -65zM235 580v-166h125q54 0 81 22t27 64q0 46 -23.5 63t-83.5 17h-126zM460.5 137.5q29.5 20.5 29.5 70.5q0 47 -31.5 69t-97.5 22h-126v-182h125
q71 0 100.5 20.5z" />
    <glyph glyph-name="C" unicode="C" horiz-adv-x="720" 
d="M248.5 32q-82.5 44 -126 125.5t-43.5 190.5t44 190.5t128 125.5t201 44q49 0 96.5 -9.5t85.5 -28.5v-122h-4q-38 22 -82.5 33t-84.5 11q-114 0 -179.5 -63t-65.5 -181q0 -117 64 -180t175 -63q43 0 87.5 13.5t85.5 38.5h4v-123q-80 -46 -188 -46q-115 0 -197.5 44z" />
    <glyph glyph-name="D" unicode="D" horiz-adv-x="780" 
d="M544 653.5q77 -42.5 117 -121t40 -184.5t-40 -184.5t-117 -121t-184 -42.5h-257v696h257q107 0 184 -42.5zM508.5 176q53.5 59 53.5 172t-53.5 172t-148.5 59h-125v-462h125q95 0 148.5 59z" />
    <glyph glyph-name="E" unicode="E" 
d="M235 580v-174h300v-109h-300v-181h322v-116h-454v696h454v-116h-322z" />
    <glyph glyph-name="F" unicode="F" horiz-adv-x="600" 
d="M235 580v-185h259v-110h-259v-285h-132v696h457v-116h-325z" />
    <glyph glyph-name="G" unicode="G" horiz-adv-x="780" 
d="M121.5 538q42.5 82 123 126t190.5 44q63 0 113 -13t98 -36v-123h-4q-35 21 -86.5 35.5t-110.5 14.5q-227 0 -227 -239q0 -117 54 -177t158 -60q84 0 125 35v105h-132v110h264v-285q-80 -49 -138 -68t-123 -19q-110 0 -188 44t-118.5 124.5t-40.5 188.5q0 111 42.5 193z
" />
    <glyph glyph-name="H" unicode="H" horiz-adv-x="800" 
d="M697 696v-696h-132v306h-330v-306h-132v696h132v-273h330v273h132z" />
    <glyph glyph-name="I" unicode="I" horiz-adv-x="320" 
d="M94 696h132v-696h-132v696z" />
    <glyph glyph-name="J" unicode="J" horiz-adv-x="440" 
d="M37 25v118q56 -36 111 -36q34 0 48.5 15t17 41t2.5 88v445h132v-482q0 -120 -47.5 -173t-133.5 -53q-70 0 -130 37z" />
    <glyph glyph-name="K" unicode="K" horiz-adv-x="700" 
d="M311 288l-76 -88v-200h-132v696h132v-316l267 316h162l-263 -304l279 -392h-163z" />
    <glyph glyph-name="L" unicode="L" horiz-adv-x="580" 
d="M103 696h132v-580h293v-116h-425v696z" />
    <glyph glyph-name="M" unicode="M" horiz-adv-x="980" 
d="M877 0h-132v529l-184 -529h-138l-188 528v-528h-132v696h207l184 -516l179 516h204v-696z" />
    <glyph glyph-name="N" unicode="N" horiz-adv-x="800" 
d="M697 696v-696h-132l-330 460v-460h-132v696h132l330 -459v459h132z" />
    <glyph glyph-name="O" unicode="O" horiz-adv-x="840" 
d="M236 32q-77 44 -117 125t-40 191t40 191t117 125t184 44t184 -44t117 -125t40 -191t-40 -191t-117 -125t-184 -44t-184 44zM568 171.5q54 61.5 54 176.5t-54 176.5t-148 61.5t-148 -61.5t-54 -176.5t54 -176.5t148 -61.5t148 61.5z" />
    <glyph glyph-name="P" unicode="P" horiz-adv-x="660" 
d="M103 696h230q144 0 215 -58.5t71 -169.5q0 -112 -70 -174t-204 -62h-110v-232h-132v696zM334 347q75 0 110.5 27t35.5 91q0 62 -35 88t-112 26h-98v-232h99z" />
    <glyph glyph-name="Q" unicode="Q" horiz-adv-x="840" 
d="M715.5 147q-45.5 -84 -131.5 -125l104 -192h-135l-87 160q-30 -2 -46 -2q-107 0 -184 44t-117 125t-40 191t40 191t117 125t184 44t184 -44t117 -125t40 -191q0 -117 -45.5 -201zM271.5 164.5q53.5 -63.5 148.5 -63.5t148.5 63.5t53.5 183.5t-53.5 183.5t-148.5 63.5
t-148.5 -63.5t-53.5 -183.5t53.5 -183.5z" />
    <glyph glyph-name="R" unicode="R" horiz-adv-x="700" 
d="M501 0l-142 265h-124v-265h-132v696h251q135 0 202 -54t67 -157q0 -73 -33 -124t-98 -76l154 -285h-145zM235 381h120q66 0 97.5 23t31.5 78q0 53 -31 75t-99 22h-119v-198z" />
    <glyph glyph-name="S" unicode="S" 
d="M200 3q-63 15 -119 41v128q130 -70 232 -70q51 0 82.5 22t31.5 62q0 28 -17.5 47.5t-43.5 32t-74 30.5q-65 24 -106 46t-70 62.5t-29 104.5q0 94 65 146.5t178 52.5q53 0 104 -11.5t94 -33.5v-125q-101 56 -195 56q-52 0 -81.5 -18.5t-29.5 -52.5t30.5 -53.5t94.5 -42.5
q67 -25 110 -48t74.5 -66.5t33.5 -112.5q0 -99 -67 -155.5t-179 -56.5q-56 0 -119 15z" />
    <glyph glyph-name="T" unicode="T" 
d="M254 575h-198v121h528v-121h-198v-575h-132v575z" />
    <glyph glyph-name="U" unicode="U" horiz-adv-x="780" 
d="M172 68q-79 80 -79 220v408h132v-405q0 -96 43 -141.5t122 -45.5q80 0 122.5 46.5t42.5 140.5v405h132v-408q0 -140 -79 -220t-218 -80t-218 80z" />
    <glyph glyph-name="V" unicode="V" horiz-adv-x="700" 
d="M681 696l-254 -696h-154l-254 696h143l191 -556l190 556h138z" />
    <glyph glyph-name="W" unicode="W" horiz-adv-x="1060" 
d="M1051 696l-219 -696h-154l-148 500l-148 -500h-154l-219 696h143l155 -535l153 535h145l153 -535l155 535h138z" />
    <glyph glyph-name="X" unicode="X" horiz-adv-x="700" 
d="M524 0l-177 255l-174 -255h-142l247 355l-235 341h145l165 -238l162 238h142l-235 -338l247 -358h-145z" />
    <glyph glyph-name="Y" unicode="Y" horiz-adv-x="660" 
d="M649 696l-253 -456v-240h-132v240l-253 456h141l179 -338l182 338h136z" />
    <glyph glyph-name="Z" unicode="Z" horiz-adv-x="660" 
d="M607 109v-109h-554v98l366 489h-344v109h510v-98l-364 -489h386z" />
    <glyph glyph-name="bracketleft" unicode="[" horiz-adv-x="396" 
d="M352 812v-109h-132v-710h132v-109h-264v928h264z" />
    <glyph glyph-name="backslash" unicode="\" horiz-adv-x="352" 
d="M0 754h124l228 -986h-123z" />
    <glyph glyph-name="bracketright" unicode="]" horiz-adv-x="396" 
d="M44 -116v109h132v710h-132v109h264v-928h-264z" />
    <glyph glyph-name="asciicircum" unicode="^" horiz-adv-x="484" 
d="M392 196l-150 171l-150 -171l-70 51l180 268h80l180 -268z" />
    <glyph glyph-name="underscore" unicode="_" horiz-adv-x="600" 
d="M553 -20v-106h-506v106h506z" />
    <glyph glyph-name="grave" unicode="`" horiz-adv-x="352" 
d="M-37 782h152l114 -157h-126z" />
    <glyph glyph-name="a" unicode="a" horiz-adv-x="580" 
d="M408 0l-13 63q-71 -75 -171 -75q-79 0 -128.5 41t-49.5 108q0 87 64.5 135.5t186.5 48.5q44 0 88 -4v19q0 44 -25 65.5t-79 21.5q-53 0 -98.5 -17.5t-98.5 -56.5v118q46 35 96 51t110 16q111 0 169.5 -47.5t58.5 -138.5v-232l22 -116h-132zM244 89q38 0 72 15.5t69 49.5
v71h-96q-58 0 -84.5 -17t-26.5 -61q0 -58 66 -58z" />
    <glyph glyph-name="b" unicode="b" 
d="M478.5 500q49.5 -34 77.5 -96.5t28 -144.5q0 -127 -65.5 -198.5t-178.5 -71.5q-33 0 -62 7t-66 25v-21h-132v754h132v-283q63 63 152 63q65 0 114.5 -34zM417 138q28 38 28 123q0 81 -23 120t-72 39q-70 0 -138 -64v-244q27 -8 53 -10t62 -2q62 0 90 38z" />
    <glyph glyph-name="c" unicode="c" horiz-adv-x="540" 
d="M184.5 21.5q-61.5 33.5 -94.5 94.5t-33 143t34 144.5t95.5 96.5t141.5 34q90 0 152 -37v-116h-4q-33 20 -71.5 30t-71.5 10q-69 0 -104 -41t-35 -121q0 -158 137 -158q36 0 73.5 11.5t71.5 32.5h4v-118q-64 -39 -152 -39q-82 0 -143.5 33.5z" />
    <glyph glyph-name="d" unicode="d" 
d="M458 0l-20 70q-36 -39 -83.5 -60t-99.5 -21q-92 0 -145.5 72t-53.5 196q0 131 61.5 204t173.5 73q72 0 134 -31v251h132v-638l22 -116h-121zM219 139q24 -42 71 -42q66 0 135 66v247q-58 15 -106 15q-64 0 -94 -40.5t-30 -125.5q0 -78 24 -120z" />
    <glyph glyph-name="e" unicode="e" horiz-adv-x="600" 
d="M550 221h-363q8 -60 44.5 -92t97.5 -32q45 0 97.5 16.5t97.5 45.5h4v-107q-40 -31 -91.5 -47.5t-108.5 -16.5q-82 0 -143 33t-94 95t-33 145q0 81 31.5 143t88.5 96t132 34q73 0 127.5 -33t83.5 -95t29 -145v-40zM231.5 397q-31.5 -31 -42.5 -86h225q-8 57 -34 87t-70 30
q-47 0 -78.5 -31z" />
    <glyph glyph-name="f" unicode="f" horiz-adv-x="360" 
d="M101 424h-78v98h78v60q0 93 43 138.5t125 45.5q31 0 53 -6t43 -18v-109q-44 23 -79 23q-29 0 -41 -16.5t-12 -57.5v-60h122v-98h-122v-424h-132v424z" />
    <glyph glyph-name="g" unicode="g" horiz-adv-x="620" 
d="M572 522l-22 -115v-407q0 -119 -70 -181.5t-191 -62.5q-64 0 -115 17t-98 46v124q94 -72 202 -72q140 0 140 129v41q-62 -34 -136 -34q-105 0 -165.5 69.5t-60.5 191.5q0 124 63.5 195t172.5 71q35 0 67 -7.5t76 -25.5l5 21h132zM418 161v250q-26 8 -51.5 10t-61.5 2
q-58 0 -84 -37t-26 -118q0 -77 22 -112t70 -35q63 0 131 40z" />
    <glyph glyph-name="h" unicode="h" 
d="M502.5 487.5q48.5 -46.5 48.5 -122.5v-365h-132v290q0 68 -20.5 97.5t-67.5 29.5q-53 0 -110 -59v-358h-132v754h132v-286q39 35 75.5 50.5t78.5 15.5q79 0 127.5 -46.5z" />
    <glyph glyph-name="i" unicode="i" horiz-adv-x="280" 
d="M82 623q-24 23 -24 60t24 60t58 23t58 -23t24 -60t-24 -60t-58 -23t-58 23zM206 522v-522h-132v521z" />
    <glyph glyph-name="j" unicode="j" horiz-adv-x="280" 
d="M88 623q-24 23 -24 60t24 60t58 23t58 -23t24 -60t-24 -60t-58 -23t-58 23zM-29 -237.5q-24 6.5 -45 21.5v109q23 -15 45 -21t48 -6q32 0 46.5 17t14.5 57v582h132v-582q0 -184 -181 -184q-36 0 -60 6.5z" />
    <glyph glyph-name="k" unicode="k" horiz-adv-x="580" 
d="M280 219l-60 -66v-153h-132v754h132v-442l182 210h150l-190 -211l202 -311h-151z" />
    <glyph glyph-name="l" unicode="l" horiz-adv-x="280" 
d="M74 754h132v-754h-132v754z" />
    <glyph glyph-name="m" unicode="m" horiz-adv-x="940" 
d="M805.5 487.5q45.5 -46.5 45.5 -122.5v-365h-132v290q0 68 -18 97.5t-60 29.5q-51 0 -105 -57v-360h-132v290q0 68 -18 97.5t-60 29.5q-51 0 -105 -57v-360h-132v406l-22 116h121l19 -67q40 42 79 60.5t84 18.5q50 0 88.5 -22.5t58.5 -61.5q42 45 81.5 64.5t86.5 19.5
q75 0 120.5 -46.5z" />
    <glyph glyph-name="n" unicode="n" 
d="M502.5 487.5q48.5 -46.5 48.5 -122.5v-365h-132v290q0 68 -20.5 97.5t-67.5 29.5q-52 0 -110 -58v-359h-132v406l-22 116h121l19 -67q43 42 83 60.5t85 18.5q79 0 127.5 -46.5z" />
    <glyph glyph-name="o" unicode="o" 
d="M181 21.5q-60 33.5 -92.5 95.5t-32.5 144t32.5 144t92.5 95.5t139 33.5t139 -33.5t92.5 -95.5t32.5 -144t-32.5 -144t-92.5 -95.5t-139 -33.5t-139 33.5zM412 139.5q33 42.5 33 121.5q0 80 -33 122t-92 42t-92 -42t-33 -122q0 -79 33 -121.5t92 -42.5t92 42.5z" />
    <glyph glyph-name="p" unicode="p" 
d="M487.5 499.5q45.5 -33.5 71 -94t25.5 -139.5q0 -78 -30 -141.5t-82.5 -100t-118.5 -36.5q-80 0 -142 33v-253h-132v638l-22 116h121l21 -74q36 41 84 63t100 22q59 0 104.5 -33.5zM445 264q0 77 -23.5 119t-68.5 42q-72 0 -142 -70v-242q64 -16 115 -16q119 0 119 167z
" />
    <glyph glyph-name="q" unicode="q" 
d="M587 523l-22 -116v-638h-132v263q-61 -43 -134 -43q-118 0 -180.5 73.5t-62.5 212.5q0 78 30.5 136.5t87 90.5t131.5 32q33 0 66 -8.5t78 -29.5l6 27h132zM433 146v263q-43 14 -119 14q-61 0 -90 -36t-29 -112q0 -91 24.5 -131.5t79.5 -40.5q64 0 134 43z" />
    <glyph glyph-name="r" unicode="r" horiz-adv-x="420" 
d="M367 534v-130h-17q-78 0 -127 -43v-361h-132v406l-22 116h132l13 -69q33 45 60 63t60 18h33z" />
    <glyph glyph-name="s" unicode="s" horiz-adv-x="500" 
d="M139 2.5q-50 14.5 -94 41.5v125q48 -36 91 -53t93 -17q51 0 75.5 13t24.5 40q0 26 -23.5 38.5t-74.5 24.5q-56 14 -91 28.5t-60.5 47.5t-25.5 89q0 70 57.5 112t154.5 42q47 0 87 -10.5t82 -34.5v-122q-43 30 -80 43t-79 13q-46 0 -71 -11.5t-25 -33.5t21.5 -32.5
t68.5 -21.5q56 -12 93.5 -27.5t64.5 -50t27 -95.5q0 -47 -27 -84.5t-76 -58t-111 -20.5q-52 0 -102 14.5z" />
    <glyph glyph-name="t" unicode="t" horiz-adv-x="400" 
d="M235 522h120v-98h-120v-252q0 -76 58 -76q27 0 63 19v-109q-25 -9 -46.5 -13.5t-48.5 -4.5q-158 0 -158 184v252h-76v98h76v140l132 46v-186z" />
    <glyph glyph-name="u" unicode="u" 
d="M448 0l-19 68q-51 -45 -89.5 -62.5t-87.5 -17.5q-47 0 -85.5 22t-60 60.5t-21.5 86.5v365h132v-290q0 -63 20 -95t58 -32q32 0 60 14t60 45v358h132v-406l22 -116h-121z" />
    <glyph glyph-name="v" unicode="v" horiz-adv-x="560" 
d="M555 522l-193 -522h-164l-193 522h134l143 -412l143 412h130z" />
    <glyph glyph-name="w" unicode="w" horiz-adv-x="860" 
d="M847 522l-159 -522h-158l-101 350l-99 -350h-158l-160 522h134l110 -387l108 387h134l110 -388l109 388h130z" />
    <glyph glyph-name="x" unicode="x" horiz-adv-x="560" 
d="M420 0l-146 188l-141 -188h-139l212 276l-190 246h146l124 -160l119 160h139l-190 -248l212 -274h-146z" />
    <glyph glyph-name="y" unicode="y" horiz-adv-x="560" 
d="M555 522l-299 -754h-125l85 215l-211 539h134l145 -382l139 382h132z" />
    <glyph glyph-name="z" unicode="z" horiz-adv-x="520" 
d="M483 102v-102h-446v92l252 328h-230v102h403v-92l-252 -328h273z" />
    <glyph glyph-name="braceleft" unicode="{" horiz-adv-x="418" 
d="M246.5 401.5q-23.5 -37.5 -66.5 -54.5q42 -16 66 -54t24 -86v-107q0 -44 19 -75.5t53 -31.5h32v-109h-85q-43 0 -76.5 25t-51.5 66t-18 89v133q0 51 -25 77t-74 26v95q49 0 74 26t25 77v134q0 48 18.5 89t52 66t76.5 25h84v-109h-32q-34 0 -53 -31.5t-19 -75.5v-108
q0 -49 -23.5 -86.5z" />
    <glyph glyph-name="bar" unicode="|" horiz-adv-x="308" 
d="M220 812v-928h-132v928h132z" />
    <glyph glyph-name="braceright" unicode="}" horiz-adv-x="418" 
d="M44 -7h32q34 0 53 31.5t19 75.5v108q0 49 23.5 86.5t66.5 54.5q-42 16 -66 54t-24 86v107q0 44 -19 75.5t-53 31.5h-32v109h85q43 0 76.5 -25t51.5 -66t18 -89v-133q0 -51 25 -77t74 -26v-95q-49 0 -74 -26t-25 -77v-134q0 -48 -18.5 -89t-52 -66t-76.5 -25h-84v109z" />
    <glyph glyph-name="asciitilde" unicode="~" horiz-adv-x="528" 
d="M308 245.5q-22 6.5 -50 18.5q-33 12 -50.5 17.5t-39.5 5.5q-66 0 -124 -48v108q63 53 129 53q24 0 45 -6t51 -18t49 -18t42 -6q66 0 124 37v-108q-60 -42 -129 -42q-25 0 -47 6.5z" />
    <glyph glyph-name="uni00A0" unicode="&#xa0;" horiz-adv-x="280" 
 />
    <glyph glyph-name="exclamdown" unicode="&#xa1;" horiz-adv-x="308" 
d="M91.5 380.5q-25.5 24.5 -25.5 64.5t25.5 64.5t62.5 24.5t62.5 -24.5t25.5 -64.5t-25.5 -64.5t-62.5 -24.5t-62.5 24.5zM88 268h132v-500h-132v500z" />
    <glyph glyph-name="cent" unicode="&#xa2;" horiz-adv-x="594" 
d="M528 52q-33 -29 -69.5 -44t-81.5 -19v-105h-82v106q-78 9 -134.5 45.5t-86.5 94t-30 129.5q0 73 30 131.5t86.5 95.5t134.5 45v107h82v-105q42 -3 75.5 -14.5t64.5 -35.5v-118h-4q-63 47 -136 54v-316q42 5 77 21.5t70 45.5h4v-118zM210.5 159q29.5 -41 84.5 -53v310
q-55 -13 -84.5 -55.5t-29.5 -102.5q0 -58 29.5 -99z" />
    <glyph glyph-name="sterling" unicode="&#xa3;" horiz-adv-x="594" 
d="M550 117v-117h-506v117h74v186h-74v103h74v74q0 107 57.5 167.5t162.5 60.5q103 0 176 -61v-121h-4q-78 72 -160 72q-53 0 -76.5 -30t-23.5 -91v-71h168v-103h-168v-186h300z" />
    <glyph glyph-name="currency" unicode="&#xa4;" horiz-adv-x="594" 
d="M495 204l83 -82l-71 -71l-82 83q-57 -33 -127 -33q-72 0 -127 33l-83 -83l-71 71l82 82q-32 56 -32 125q0 73 34 129l-84 83l71 71l83 -84q54 34 127 34q71 0 126 -33l83 83l71 -71l-84 -84q33 -57 33 -128q0 -72 -32 -125zM210.5 239q34.5 -36 87.5 -36t86 35.5t33 93.5
q0 57 -33 90.5t-86 33.5t-87.5 -33.5t-34.5 -90.5t34.5 -93z" />
    <glyph glyph-name="yen" unicode="&#xa5;" horiz-adv-x="594" 
d="M403 318h103v-92h-143v-52h143v-92h-143v-82h-132v82h-143v92h143v52h-143v92h103l-191 378h147l150 -329l155 329h142z" />
    <glyph glyph-name="brokenbar" unicode="&#xa6;" horiz-adv-x="308" 
d="M220 812v-406h-132v406h132zM220 291v-407h-132v407h132z" />
    <glyph glyph-name="section" unicode="&#xa7;" horiz-adv-x="550" 
d="M209.5 577q-30.5 -17 -30.5 -46q0 -31 29.5 -49.5t94.5 -42.5q63 -23 103.5 -44.5t70 -59.5t29.5 -95q0 -72 -37 -123q37 -43 37 -110q0 -88 -63.5 -134.5t-179.5 -46.5q-58 0 -114.5 11.5t-104.5 33.5v125q109 -56 217 -56q110 0 110 58q0 22 -16 38.5t-39.5 27.5
t-69.5 29q-63 23 -103.5 44.5t-69.5 60t-29 96.5q0 72 36 121q-36 46 -36 110q0 90 64 136.5t180 46.5q117 0 219 -45v-125q-55 29 -110.5 42.5t-102.5 13.5q-54 0 -84.5 -17zM353 254.5q-17 19.5 -42.5 32t-71.5 31.5l-55 23q-4 -11 -4 -25q0 -27 17 -46t43 -31.5t73 -30.5
q33 -12 54 -21q3 9 3 21q0 27 -17 46.5z" />
    <glyph glyph-name="dieresis" unicode="&#xa8;" horiz-adv-x="484" 
d="M91.5 631q-21.5 21 -21.5 53t21.5 53t51.5 21t51.5 -21t21.5 -53t-21.5 -53t-51.5 -21t-51.5 21zM289.5 631q-21.5 21 -21.5 53t21.5 53t51.5 21t51.5 -21t21.5 -53t-21.5 -53t-51.5 -21t-51.5 21z" />
    <glyph glyph-name="copyright" unicode="&#xa9;" horiz-adv-x="858" 
d="M113 532.5q47 82.5 130.5 129t189.5 46.5q104 0 185.5 -46.5t127.5 -129t46 -188.5q0 -104 -46 -185t-127.5 -126t-185.5 -45q-106 0 -189.5 45t-130.5 126t-47 185q0 106 47 188.5zM198.5 204q34.5 -61 95.5 -94.5t139 -33.5q75 0 134.5 33.5t93 94.5t33.5 140
q0 81 -33.5 143.5t-93 97.5t-134.5 35q-78 0 -139 -35t-95.5 -97.5t-34.5 -143.5q0 -79 34.5 -140zM380 423q-21 -30 -21 -77q0 -45 21 -74t59 -29q37 0 66 13t56 40h4v-109q-28 -27 -61 -38t-75 -11q-86 0 -136 58.5t-50 150.5q0 61 22.5 109t65 75t99.5 27q40 0 70 -8
t57 -31v-109h-4q-26 23 -52.5 33t-60.5 10q-39 0 -60 -30z" />
    <glyph glyph-name="ordfeminine" unicode="&#xaa;" horiz-adv-x="330" 
d="M235 427l-11 29q-38 -36 -87 -36q-48 0 -76 23.5t-28 63.5q0 87 148 87q19 0 31 -1v10q0 16 -12.5 26t-37.5 10q-50 0 -106 -34v73q47 30 113 30q60 0 94 -27t34 -72v-121l11 -61h-73zM151 486q30 0 61 18v33h-41q-21 0 -35 -8t-14 -23q0 -20 29 -20z" />
    <glyph glyph-name="guillemotleft" unicode="&#xab;" horiz-adv-x="572" 
d="M310 58h-153l-157 205v4l167 197h143l-161 -197v-4zM572 58h-153l-157 205v4l167 197h143l-161 -197v-4z" />
    <glyph glyph-name="logicalnot" unicode="&#xac;" horiz-adv-x="550" 
d="M506 384v-246h-132v137h-308v109h440z" />
    <glyph glyph-name="uni00AD" unicode="&#xad;" horiz-adv-x="400" 
d="M330 323v-106h-260v106h260z" />
    <glyph glyph-name="registered" unicode="&#xae;" horiz-adv-x="682" 
d="M485 673q62 -35 96.5 -97.5t34.5 -142.5t-34.5 -141.5t-96.5 -95.5t-142 -34t-143 34t-98.5 96t-35.5 141t35.5 142t98.5 98t143 35t142 -35zM489.5 284.5q55.5 55.5 55.5 148.5q0 62 -25.5 109.5t-71.5 73.5t-105 26q-60 0 -106.5 -26t-72.5 -73.5t-26 -109.5
q0 -61 26 -107.5t72.5 -71.5t106.5 -25q91 0 146.5 55.5zM458 431q-15 -25 -43 -37l57 -107h-78l-51 96h-35v-96h-70v300h115q120 0 120 -97q0 -34 -15 -59zM308 450h45q25 0 36.5 8.5t11.5 27.5t-11 26t-37 7h-45v-69z" />
    <glyph glyph-name="macron" unicode="&#xaf;" horiz-adv-x="462" 
d="M382 734v-100h-302v100h302z" />
    <glyph glyph-name="degree" unicode="&#xb0;" horiz-adv-x="374" 
d="M84 666.5q40 40.5 104 40.5q63 0 102.5 -40.5t39.5 -104.5q0 -63 -39.5 -102.5t-102.5 -39.5q-64 0 -104 39.5t-40 102.5q0 64 40 104.5zM144 518q17 -18 44 -18q26 0 42 18t16 46t-16 45t-42 17q-27 0 -44 -17t-17 -45t17 -46z" />
    <glyph glyph-name="plusminus" unicode="&#xb1;" horiz-adv-x="594" 
d="M528 164v-106h-462v106h462zM528 397h-173v-193h-116v193h-173v106h173v193h116v-193h173v-106z" />
    <glyph glyph-name="uni00B2" unicode="&#xb2;" horiz-adv-x="409" 
d="M363 486v-88h-317v79l136 115q64 55 64 95q0 19 -15 27t-47 8q-65 0 -125 -33v91q63 29 130 29q75 0 118.5 -30t43.5 -87q0 -58 -61 -117l-94 -89h167z" />
    <glyph glyph-name="uni00B3" unicode="&#xb3;" horiz-adv-x="410" 
d="M354.5 567q15.5 -26 15.5 -56q0 -56 -50.5 -88t-132.5 -32q-78 0 -147 33v98h3q70 -44 139 -44q81 0 81 37q0 22 -25 37t-66 15h-27v83h27q38 0 60.5 12t22.5 32q0 27 -69 27q-60 0 -131 -36h-2v95q65 29 137 29q78 0 124 -29t46 -80q0 -27 -13 -50t-37 -40
q29 -17 44.5 -43z" />
    <glyph glyph-name="acute" unicode="&#xb4;" horiz-adv-x="352" 
d="M237 782h144l-140 -196h-118z" />
    <glyph glyph-name="uni00B5" unicode="&#xb5;" horiz-adv-x="616" 
d="M66 522h132v-317q0 -53 19.5 -79t63.5 -26q69 0 115 66v356h132v-406l22 -116h-110l-20 68q-32 -42 -67 -61t-76 -19q-36 0 -59 13.5t-40 37.5l20 -213h-132v696z" />
    <glyph glyph-name="paragraph" unicode="&#xb6;" horiz-adv-x="682" 
d="M308 -116v348h-33q-124 0 -188.5 60.5t-64.5 175.5q0 228 260 228h158v-812h-132zM638 696v-812h-132v812h132z" />
    <glyph glyph-name="periodcentered" unicode="&#xb7;" horiz-adv-x="200" 
d="M36 195q-26 25 -26 66t26 66t64 25t64 -25t26 -66t-26 -66t-64 -25t-64 25z" />
    <glyph glyph-name="cedilla" unicode="&#xb8;" horiz-adv-x="310" 
d="M40 -218v85h4q47 -25 87 -25q24 0 37 11t13 31q0 26 -21 56t-58 60l106 26q70 -86 70 -157q0 -55 -39 -84t-96 -29q-52 0 -103 26z" />
    <glyph glyph-name="uni00B9" unicode="&#xb9;" horiz-adv-x="410" 
d="M370 486v-88h-330v88h124v202l-79 -24h-3l-22 67v2l137 69h71v-316h102z" />
    <glyph glyph-name="ordmasculine" unicode="&#xba;" horiz-adv-x="352" 
d="M70.5 459.5q-37.5 39.5 -37.5 104.5t37.5 104.5t105.5 39.5t105.5 -39.5t37.5 -104.5t-37.5 -104.5t-105.5 -39.5t-105.5 39.5zM217 509q13 21 13 55t-13.5 55t-39.5 21q-28 0 -41.5 -21.5t-13.5 -54.5q0 -34 13.5 -55t41.5 -21q27 0 40 21z" />
    <glyph glyph-name="guillemotright" unicode="&#xbb;" horiz-adv-x="572" 
d="M0 464h153l157 -205v-4l-167 -197h-143l161 197v4zM262 464h153l157 -205v-4l-167 -197h-143l161 197v4z" />
    <glyph glyph-name="onequarter" unicode="&#xbc;" horiz-adv-x="1099" 
d="M370 386v-88h-330v88h124v202l-79 -24h-3l-22 67v2l137 69h71v-316h102zM817 696l-414 -696h-120l414 696h120zM1070 75h-58v-81h-104v81h-199v82h1l198 241h104v-237h58v-86zM908 161v107l-77 -107h77z" />
    <glyph glyph-name="onehalf" unicode="&#xbd;" horiz-adv-x="1099" 
d="M370 386v-88h-330v88h124v202l-79 -24h-3l-22 67v2l137 69h71v-316h102zM817 696l-414 -696h-120l414 696h120zM1053 82v-88h-317v79l136 115q64 55 64 95q0 19 -15 27t-47 8q-65 0 -125 -33v91q63 29 130 29q75 0 118.5 -30t43.5 -87q0 -58 -61 -117l-94 -89h167z" />
    <glyph glyph-name="threequarters" unicode="&#xbe;" horiz-adv-x="1099" 
d="M354.5 467q15.5 -26 15.5 -56q0 -56 -50.5 -88t-132.5 -32q-78 0 -147 33v98h3q70 -44 139 -44q81 0 81 37q0 22 -25 37t-66 15h-27v83h27q38 0 60.5 12t22.5 32q0 27 -69 27q-60 0 -131 -36h-2v95q65 29 137 29q78 0 124 -29t46 -80q0 -27 -13 -50t-37 -40
q29 -17 44.5 -43zM817 696l-414 -696h-120l414 696h120zM1070 75h-58v-81h-104v81h-199v82h1l198 241h104v-237h58v-86zM908 161v107l-77 -107h77z" />
    <glyph glyph-name="questiondown" unicode="&#xbf;" horiz-adv-x="550" 
d="M393.5 508.5q25.5 -24.5 25.5 -64.5t-25.5 -64.5t-62.5 -24.5t-62.5 24.5t-25.5 64.5t25.5 64.5t62.5 24.5t62.5 -24.5zM396 260q0 -57 -19 -94.5t-46 -59t-68 -44.5q-44 -25 -64.5 -44.5t-20.5 -53.5q0 -44 38.5 -68.5t101.5 -24.5q95 0 184 57h4v-118q-87 -55 -196 -55
q-75 0 -135 24t-95.5 71t-35.5 114q0 48 18 80.5t44 52t67 41.5q46 25 68.5 46t22.5 56v27h132v-7z" />
    <glyph glyph-name="Agrave" unicode="&#xc0;" horiz-adv-x="740" 
d="M516 158h-297l-58 -158h-132l264 696h154l264 -696h-137zM475 270l-107 296l-108 -296h215zM309 782l-141 146h152l104 -146h-115z" />
    <glyph glyph-name="Aacute" unicode="&#xc1;" horiz-adv-x="740" 
d="M516 158h-297l-58 -158h-132l264 696h154l264 -696h-137zM475 270l-107 296l-108 -296h215zM416 928h152l-141 -146h-115z" />
    <glyph glyph-name="Acircumflex" unicode="&#xc2;" horiz-adv-x="740" 
d="M516 158h-297l-58 -158h-132l264 696h154l264 -696h-137zM475 270l-107 296l-108 -296h215zM306 928h128l94 -196h-99l-60 110l-58 -110h-99z" />
    <glyph glyph-name="Atilde" unicode="&#xc3;" horiz-adv-x="740" 
d="M516 158h-297l-58 -158h-132l264 696h154l264 -696h-137zM475 270l-107 296l-108 -296h215zM403.5 779.5q-16.5 6.5 -38.5 18.5q-25 13 -38.5 18t-30.5 5q-47 0 -91 -48v94q46 53 96 53q19 0 35.5 -6.5t38.5 -18.5q25 -13 38.5 -18t30.5 -5q47 0 91 37v-94
q-46 -42 -96 -42q-19 0 -35.5 6.5z" />
    <glyph glyph-name="Adieresis" unicode="&#xc4;" horiz-adv-x="740" 
d="M516 158h-297l-58 -158h-132l264 696h154l264 -696h-137zM475 270l-107 296l-108 -296h215zM219.5 791q-21.5 21 -21.5 53t21.5 53t51.5 21t51.5 -21t21.5 -53t-21.5 -53t-51.5 -21t-51.5 21zM417.5 791q-21.5 21 -21.5 53t21.5 53t51.5 21t51.5 -21t21.5 -53t-21.5 -53
t-51.5 -21t-51.5 21z" />
    <glyph glyph-name="Aring" unicode="&#xc5;" horiz-adv-x="740" 
d="M516 158h-297l-58 -158h-132l264 696h154l264 -696h-137zM475 270l-107 296l-108 -296h215zM292 896q32 32 78 32t78 -32t32 -78t-32 -78t-78 -32t-78 32t-32 78t32 78zM339.5 787q12.5 -13 30.5 -13t30 13t12 31q0 19 -12 31t-30 12q-19 0 -31 -12t-12 -31
q0 -18 12.5 -31z" />
    <glyph glyph-name="AE" unicode="&#xc6;" horiz-adv-x="980" 
d="M254 161l-85 -161h-140l361 696h507v-116h-285v-173h263v-110h-263v-181h285v-116h-417v161h-226zM480 595l-171 -326h171v326z" />
    <glyph glyph-name="Ccedilla" unicode="&#xc7;" horiz-adv-x="720" 
d="M283.5 529q-65.5 -63 -65.5 -181q0 -117 64 -180t175 -63q43 0 87.5 13.5t85.5 38.5h4v-123q-67 -39 -159 -45q43 -65 43 -120t-39 -84t-96 -29q-52 0 -103 26v85h4q47 -25 87 -25q24 0 37 11t13 31q0 25 -20.5 55t-56.5 59q-126 27 -195.5 119t-69.5 231q0 109 44 190.5
t128 125.5t201 44q49 0 96.5 -9.5t85.5 -28.5v-122h-4q-38 22 -82.5 33t-84.5 11q-114 0 -179.5 -63z" />
    <glyph glyph-name="Egrave" unicode="&#xc8;" 
d="M235 580v-174h300v-109h-300v-181h322v-116h-454v696h454v-116h-322zM278 782l-141 146h152l104 -146h-115z" />
    <glyph glyph-name="Eacute" unicode="&#xc9;" 
d="M235 580v-174h300v-109h-300v-181h322v-116h-454v696h454v-116h-322zM385 928h152l-141 -146h-115z" />
    <glyph glyph-name="Ecircumflex" unicode="&#xca;" 
d="M235 580v-174h300v-109h-300v-181h322v-116h-454v696h454v-116h-322zM275 928h128l94 -196h-99l-60 110l-58 -110h-99z" />
    <glyph glyph-name="Edieresis" unicode="&#xcb;" 
d="M235 580v-174h300v-109h-300v-181h322v-116h-454v696h454v-116h-322zM188.5 791q-21.5 21 -21.5 53t21.5 53t51.5 21t51.5 -21t21.5 -53t-21.5 -53t-51.5 -21t-51.5 21zM386.5 791q-21.5 21 -21.5 53t21.5 53t51.5 21t51.5 -21t21.5 -53t-21.5 -53t-51.5 -21t-51.5 21z
" />
    <glyph glyph-name="Igrave" unicode="&#xcc;" horiz-adv-x="320" 
d="M94 696h132v-696h-132v696zM99 782l-141 146h152l104 -146h-115z" />
    <glyph glyph-name="Iacute" unicode="&#xcd;" horiz-adv-x="320" 
d="M94 696h132v-696h-132v696zM206 928h152l-141 -146h-115z" />
    <glyph glyph-name="Icircumflex" unicode="&#xce;" horiz-adv-x="320" 
d="M94 696h132v-696h-132v696zM96 928h128l94 -196h-99l-60 110l-58 -110h-99z" />
    <glyph glyph-name="Idieresis" unicode="&#xcf;" horiz-adv-x="320" 
d="M94 696h132v-696h-132v696zM9.5 791q-21.5 21 -21.5 53t21.5 53t51.5 21t51.5 -21t21.5 -53t-21.5 -53t-51.5 -21t-51.5 21zM207.5 791q-21.5 21 -21.5 53t21.5 53t51.5 21t51.5 -21t21.5 -53t-21.5 -53t-51.5 -21t-51.5 21z" />
    <glyph glyph-name="Eth" unicode="&#xd0;" horiz-adv-x="780" 
d="M544 653.5q77 -42.5 117 -121t40 -184.5t-40 -184.5t-117 -121t-184 -42.5h-257v295h-74v106h74v295h257q107 0 184 -42.5zM508.5 176q53.5 59 53.5 172t-53.5 172t-148.5 59h-125v-178h74v-106h-74v-178h125q95 0 148.5 59z" />
    <glyph glyph-name="Ntilde" unicode="&#xd1;" horiz-adv-x="800" 
d="M697 696v-696h-132l-330 460v-460h-132v696h132l330 -459v459h132zM433.5 779.5q-16.5 6.5 -38.5 18.5q-25 13 -38.5 18t-30.5 5q-47 0 -91 -48v94q46 53 96 53q19 0 35.5 -6.5t38.5 -18.5q25 -13 38.5 -18t30.5 -5q47 0 91 37v-94q-46 -42 -96 -42q-19 0 -35.5 6.5z" />
    <glyph glyph-name="Ograve" unicode="&#xd2;" horiz-adv-x="840" 
d="M236 32q-77 44 -117 125t-40 191t40 191t117 125t184 44t184 -44t117 -125t40 -191t-40 -191t-117 -125t-184 -44t-184 44zM568 171.5q54 61.5 54 176.5t-54 176.5t-148 61.5t-148 -61.5t-54 -176.5t54 -176.5t148 -61.5t148 61.5zM359 782l-141 146h152l104 -146h-115z
" />
    <glyph glyph-name="Oacute" unicode="&#xd3;" horiz-adv-x="840" 
d="M236 32q-77 44 -117 125t-40 191t40 191t117 125t184 44t184 -44t117 -125t40 -191t-40 -191t-117 -125t-184 -44t-184 44zM568 171.5q54 61.5 54 176.5t-54 176.5t-148 61.5t-148 -61.5t-54 -176.5t54 -176.5t148 -61.5t148 61.5zM466 928h152l-141 -146h-115z" />
    <glyph glyph-name="Ocircumflex" unicode="&#xd4;" horiz-adv-x="840" 
d="M236 32q-77 44 -117 125t-40 191t40 191t117 125t184 44t184 -44t117 -125t40 -191t-40 -191t-117 -125t-184 -44t-184 44zM568 171.5q54 61.5 54 176.5t-54 176.5t-148 61.5t-148 -61.5t-54 -176.5t54 -176.5t148 -61.5t148 61.5zM356 928h128l94 -196h-99l-60 110
l-58 -110h-99z" />
    <glyph glyph-name="Otilde" unicode="&#xd5;" horiz-adv-x="840" 
d="M236 32q-77 44 -117 125t-40 191t40 191t117 125t184 44t184 -44t117 -125t40 -191t-40 -191t-117 -125t-184 -44t-184 44zM568 171.5q54 61.5 54 176.5t-54 176.5t-148 61.5t-148 -61.5t-54 -176.5t54 -176.5t148 -61.5t148 61.5zM453.5 779.5q-16.5 6.5 -38.5 18.5
q-25 13 -38.5 18t-30.5 5q-47 0 -91 -48v94q46 53 96 53q19 0 35.5 -6.5t38.5 -18.5q25 -13 38.5 -18t30.5 -5q47 0 91 37v-94q-46 -42 -96 -42q-19 0 -35.5 6.5z" />
    <glyph glyph-name="Odieresis" unicode="&#xd6;" horiz-adv-x="840" 
d="M236 32q-77 44 -117 125t-40 191t40 191t117 125t184 44t184 -44t117 -125t40 -191t-40 -191t-117 -125t-184 -44t-184 44zM568 171.5q54 61.5 54 176.5t-54 176.5t-148 61.5t-148 -61.5t-54 -176.5t54 -176.5t148 -61.5t148 61.5zM269.5 791q-21.5 21 -21.5 53t21.5 53
t51.5 21t51.5 -21t21.5 -53t-21.5 -53t-51.5 -21t-51.5 21zM467.5 791q-21.5 21 -21.5 53t21.5 53t51.5 21t51.5 -21t21.5 -53t-21.5 -53t-51.5 -21t-51.5 21z" />
    <glyph glyph-name="multiply" unicode="&#xd7;" horiz-adv-x="594" 
d="M378 352l157 -166l-83 -83l-155 164l-155 -164l-83 83l157 166l-157 166l83 83l155 -164l155 164l83 -83z" />
    <glyph glyph-name="Oslash" unicode="&#xd8;" horiz-adv-x="840" 
d="M693 585q68 -94 68 -237q0 -110 -40 -191t-117 -125t-184 -44t-184 44l-26 -32h-154l91 111q-68 94 -68 237q0 110 40 191t117 125t184 44t184 -44l26 32h154zM240 223l280 340q-43 23 -100 23q-94 0 -148 -61.5t-54 -176.5q0 -70 22 -125zM600 473l-280 -340
q43 -23 100 -23q94 0 148 61.5t54 176.5q0 70 -22 125z" />
    <glyph glyph-name="Ugrave" unicode="&#xd9;" horiz-adv-x="780" 
d="M172 68q-79 80 -79 220v408h132v-405q0 -96 43 -141.5t122 -45.5q80 0 122.5 46.5t42.5 140.5v405h132v-408q0 -140 -79 -220t-218 -80t-218 80zM329 782l-141 146h152l104 -146h-115z" />
    <glyph glyph-name="Uacute" unicode="&#xda;" horiz-adv-x="780" 
d="M172 68q-79 80 -79 220v408h132v-405q0 -96 43 -141.5t122 -45.5q80 0 122.5 46.5t42.5 140.5v405h132v-408q0 -140 -79 -220t-218 -80t-218 80zM436 928h152l-141 -146h-115z" />
    <glyph glyph-name="Ucircumflex" unicode="&#xdb;" horiz-adv-x="780" 
d="M172 68q-79 80 -79 220v408h132v-405q0 -96 43 -141.5t122 -45.5q80 0 122.5 46.5t42.5 140.5v405h132v-408q0 -140 -79 -220t-218 -80t-218 80zM326 928h128l94 -196h-99l-60 110l-58 -110h-99z" />
    <glyph glyph-name="Udieresis" unicode="&#xdc;" horiz-adv-x="780" 
d="M172 68q-79 80 -79 220v408h132v-405q0 -96 43 -141.5t122 -45.5q80 0 122.5 46.5t42.5 140.5v405h132v-408q0 -140 -79 -220t-218 -80t-218 80zM239.5 791q-21.5 21 -21.5 53t21.5 53t51.5 21t51.5 -21t21.5 -53t-21.5 -53t-51.5 -21t-51.5 21zM437.5 791
q-21.5 21 -21.5 53t21.5 53t51.5 21t51.5 -21t21.5 -53t-21.5 -53t-51.5 -21t-51.5 21z" />
    <glyph glyph-name="Yacute" unicode="&#xdd;" horiz-adv-x="660" 
d="M649 696l-253 -456v-240h-132v240l-253 456h141l179 -338l182 338h136zM376 928h152l-141 -146h-115z" />
    <glyph glyph-name="Thorn" unicode="&#xde;" horiz-adv-x="660" 
d="M235 696v-117h124q260 0 260 -228q0 -115 -64.5 -175.5t-188.5 -60.5h-131v-115h-132v696h132zM447.5 257.5q32.5 27.5 32.5 89.5t-32.5 88.5t-110.5 26.5h-102v-232h106q74 0 106.5 27.5z" />
    <glyph glyph-name="germandbls" unicode="&#xdf;" horiz-adv-x="669" 
d="M402 446.5q10 13.5 32 35.5q33 33 51 61.5t18 68.5q0 43 -24.5 78.5t-73 56.5t-116.5 21q-105 0 -160 -49.5t-55 -136.5v-582h132v559q0 44 22.5 71t69.5 27q34 0 53.5 -14.5t19.5 -40.5q0 -21 -11.5 -36.5t-34.5 -35.5q-32 -30 -48.5 -55t-16.5 -67q0 -55 32 -88t96 -65
q49 -25 68.5 -36.5t27.5 -22.5t8 -29q0 -36 -23.5 -52t-60.5 -16t-75.5 16.5t-82.5 53.5v-125q42 -30 82 -43t83 -13q53 0 100.5 17.5t78 58t30.5 103.5q0 44 -16 73t-47 51t-91 55q-43 24 -60.5 39t-17.5 33q0 15 10 28.5z" />
    <glyph glyph-name="agrave" unicode="&#xe0;" horiz-adv-x="580" 
d="M408 0l-13 63q-71 -75 -171 -75q-79 0 -128.5 41t-49.5 108q0 87 64.5 135.5t186.5 48.5q44 0 88 -4v19q0 44 -25 65.5t-79 21.5q-53 0 -98.5 -17.5t-98.5 -56.5v118q46 35 96 51t110 16q111 0 169.5 -47.5t58.5 -138.5v-232l22 -116h-132zM244 89q38 0 72 15.5t69 49.5
v71h-96q-58 0 -84.5 -17t-26.5 -61q0 -58 66 -58zM77 782h152l114 -157h-126z" />
    <glyph glyph-name="aacute" unicode="&#xe1;" horiz-adv-x="580" 
d="M408 0l-13 63q-71 -75 -171 -75q-79 0 -128.5 41t-49.5 108q0 87 64.5 135.5t186.5 48.5q44 0 88 -4v19q0 44 -25 65.5t-79 21.5q-53 0 -98.5 -17.5t-98.5 -56.5v118q46 35 96 51t110 16q111 0 169.5 -47.5t58.5 -138.5v-232l22 -116h-132zM244 89q38 0 72 15.5t69 49.5
v71h-96q-58 0 -84.5 -17t-26.5 -61q0 -58 66 -58zM351 782h144l-140 -196h-118z" />
    <glyph glyph-name="acircumflex" unicode="&#xe2;" horiz-adv-x="580" 
d="M408 0l-13 63q-71 -75 -171 -75q-79 0 -128.5 41t-49.5 108q0 87 64.5 135.5t186.5 48.5q44 0 88 -4v19q0 44 -25 65.5t-79 21.5q-53 0 -98.5 -17.5t-98.5 -56.5v118q46 35 96 51t110 16q111 0 169.5 -47.5t58.5 -138.5v-232l22 -116h-132zM244 89q38 0 72 15.5t69 49.5
v71h-96q-58 0 -84.5 -17t-26.5 -61q0 -58 66 -58zM226 782h128l94 -196h-99l-60 110l-58 -110h-99z" />
    <glyph glyph-name="atilde" unicode="&#xe3;" horiz-adv-x="580" 
d="M408 0l-13 63q-71 -75 -171 -75q-79 0 -128.5 41t-49.5 108q0 87 64.5 135.5t186.5 48.5q44 0 88 -4v19q0 44 -25 65.5t-79 21.5q-53 0 -98.5 -17.5t-98.5 -56.5v118q46 35 96 51t110 16q111 0 169.5 -47.5t58.5 -138.5v-232l22 -116h-132zM244 89q38 0 72 15.5t69 49.5
v71h-96q-58 0 -84.5 -17t-26.5 -61q0 -58 66 -58zM323.5 612.5q-16.5 6.5 -38.5 18.5q-25 13 -38.5 18t-30.5 5q-47 0 -91 -48v102q46 53 96 53q19 0 35.5 -6.5t38.5 -18.5q25 -13 38.5 -18t30.5 -5q47 0 91 37v-102q-46 -42 -96 -42q-19 0 -35.5 6.5z" />
    <glyph glyph-name="adieresis" unicode="&#xe4;" horiz-adv-x="580" 
d="M408 0l-13 63q-71 -75 -171 -75q-79 0 -128.5 41t-49.5 108q0 87 64.5 135.5t186.5 48.5q44 0 88 -4v19q0 44 -25 65.5t-79 21.5q-53 0 -98.5 -17.5t-98.5 -56.5v118q46 35 96 51t110 16q111 0 169.5 -47.5t58.5 -138.5v-232l22 -116h-132zM244 89q38 0 72 15.5t69 49.5
v71h-96q-58 0 -84.5 -17t-26.5 -61q0 -58 66 -58zM139.5 631q-21.5 21 -21.5 53t21.5 53t51.5 21t51.5 -21t21.5 -53t-21.5 -53t-51.5 -21t-51.5 21zM337.5 631q-21.5 21 -21.5 53t21.5 53t51.5 21t51.5 -21t21.5 -53t-21.5 -53t-51.5 -21t-51.5 21z" />
    <glyph glyph-name="aring" unicode="&#xe5;" horiz-adv-x="580" 
d="M408 0l-13 63q-71 -75 -171 -75q-79 0 -128.5 41t-49.5 108q0 87 64.5 135.5t186.5 48.5q44 0 88 -4v19q0 44 -25 65.5t-79 21.5q-53 0 -98.5 -17.5t-98.5 -56.5v118q46 35 96 51t110 16q111 0 169.5 -47.5t58.5 -138.5v-232l22 -116h-132zM244 89q38 0 72 15.5t69 49.5
v71h-96q-58 0 -84.5 -17t-26.5 -61q0 -58 66 -58zM212 762q32 32 78 32t78 -32t32 -78t-32 -78t-78 -32t-78 32t-32 78t32 78zM259.5 653q12.5 -13 30.5 -13t30 13t12 31q0 19 -12 31t-30 12q-19 0 -31 -12t-12 -31q0 -18 12.5 -31z" />
    <glyph glyph-name="ae" unicode="&#xe6;" horiz-adv-x="954" 
d="M559.5 10.5q-53.5 22.5 -87.5 63.5q-92 -86 -225 -86q-94 0 -147.5 43t-53.5 119q0 91 75 134.5t192 43.5q41 0 85 -6v14q0 41 -27 64.5t-81 23.5q-50 0 -101.5 -20t-98.5 -55v118q88 67 214 67q61 0 103.5 -16.5t71.5 -54.5q31 34 75.5 52.5t100.5 18.5q78 0 134 -35.5
t85.5 -97.5t29.5 -140v-52h-371q7 -51 45 -81.5t105 -30.5q50 0 97.5 18.5t97.5 54.5h4v-121q-49 -32 -97.5 -46.5t-102.5 -14.5q-69 0 -122.5 22.5zM571 395q-31 -33 -37 -85h235q-6 53 -34 85.5t-80 32.5q-53 0 -84 -33zM412 156q-11 30 -14 72h-90q-54 0 -88.5 -17.5
t-34.5 -55.5q0 -29 20 -44.5t59 -15.5q73 0 148 61z" />
    <glyph glyph-name="ccedilla" unicode="&#xe7;" horiz-adv-x="540" 
d="M229 380q-35 -41 -35 -121q0 -158 137 -158q36 0 73.5 11.5t71.5 32.5h4v-118q-43 -26 -97 -35q45 -65 45 -123q0 -55 -39 -84t-96 -29q-52 0 -103 26v85h4q47 -25 87 -25q24 0 37 11t13 31q0 25 -19 53.5t-54 57.5q-94 20 -147.5 89.5t-53.5 174.5q0 82 34 144.5
t95.5 96.5t141.5 34q90 0 152 -37v-116h-4q-33 20 -71.5 30t-71.5 10q-69 0 -104 -41z" />
    <glyph glyph-name="egrave" unicode="&#xe8;" horiz-adv-x="600" 
d="M550 221h-363q8 -60 44.5 -92t97.5 -32q45 0 97.5 16.5t97.5 45.5h4v-107q-40 -31 -91.5 -47.5t-108.5 -16.5q-82 0 -143 33t-94 95t-33 145q0 81 31.5 143t88.5 96t132 34q73 0 127.5 -33t83.5 -95t29 -145v-40zM231.5 397q-31.5 -31 -42.5 -86h225q-8 57 -34 87t-70 30
q-47 0 -78.5 -31zM91 782h152l114 -157h-126z" />
    <glyph glyph-name="eacute" unicode="&#xe9;" horiz-adv-x="600" 
d="M550 221h-363q8 -60 44.5 -92t97.5 -32q45 0 97.5 16.5t97.5 45.5h4v-107q-40 -31 -91.5 -47.5t-108.5 -16.5q-82 0 -143 33t-94 95t-33 145q0 81 31.5 143t88.5 96t132 34q73 0 127.5 -33t83.5 -95t29 -145v-40zM231.5 397q-31.5 -31 -42.5 -86h225q-8 57 -34 87t-70 30
q-47 0 -78.5 -31zM365 782h144l-140 -196h-118z" />
    <glyph glyph-name="ecircumflex" unicode="&#xea;" horiz-adv-x="600" 
d="M550 221h-363q8 -60 44.5 -92t97.5 -32q45 0 97.5 16.5t97.5 45.5h4v-107q-40 -31 -91.5 -47.5t-108.5 -16.5q-82 0 -143 33t-94 95t-33 145q0 81 31.5 143t88.5 96t132 34q73 0 127.5 -33t83.5 -95t29 -145v-40zM231.5 397q-31.5 -31 -42.5 -86h225q-8 57 -34 87t-70 30
q-47 0 -78.5 -31zM240 782h128l94 -196h-99l-60 110l-58 -110h-99z" />
    <glyph glyph-name="edieresis" unicode="&#xeb;" horiz-adv-x="600" 
d="M550 221h-363q8 -60 44.5 -92t97.5 -32q45 0 97.5 16.5t97.5 45.5h4v-107q-40 -31 -91.5 -47.5t-108.5 -16.5q-82 0 -143 33t-94 95t-33 145q0 81 31.5 143t88.5 96t132 34q73 0 127.5 -33t83.5 -95t29 -145v-40zM231.5 397q-31.5 -31 -42.5 -86h225q-8 57 -34 87t-70 30
q-47 0 -78.5 -31zM153.5 631q-21.5 21 -21.5 53t21.5 53t51.5 21t51.5 -21t21.5 -53t-21.5 -53t-51.5 -21t-51.5 21zM351.5 631q-21.5 21 -21.5 53t21.5 53t51.5 21t51.5 -21t21.5 -53t-21.5 -53t-51.5 -21t-51.5 21z" />
    <glyph glyph-name="igrave" unicode="&#xec;" horiz-adv-x="280" 
d="M206 522v-522h-132v521zM-73 782h152l114 -157h-126z" />
    <glyph glyph-name="iacute" unicode="&#xed;" horiz-adv-x="280" 
d="M206 522v-522h-132v521zM201 782h144l-140 -196h-118z" />
    <glyph glyph-name="icircumflex" unicode="&#xee;" horiz-adv-x="280" 
d="M206 522v-522h-132v521zM76 782h128l94 -196h-99l-60 110l-58 -110h-99z" />
    <glyph glyph-name="idieresis" unicode="&#xef;" horiz-adv-x="280" 
d="M206 522v-522h-132v521zM-10.5 631q-21.5 21 -21.5 53t21.5 53t51.5 21t51.5 -21t21.5 -53t-21.5 -53t-51.5 -21t-51.5 21zM187.5 631q-21.5 21 -21.5 53t21.5 53t51.5 21t51.5 -21t21.5 -53t-21.5 -53t-51.5 -21t-51.5 21z" />
    <glyph glyph-name="eth" unicode="&#xf0;" horiz-adv-x="600" 
d="M575 601l-65 -11q65 -116 65 -271q0 -157 -71 -244t-203 -87q-119 0 -186.5 68t-67.5 185q0 121 72 187.5t196 66.5q59 0 104 -21q-16 55 -41 95l-155 -25v98l83 13q-47 44 -115 84v4l141 22q66 -37 113 -87l130 21v-98zM436 326v24q-61 32 -122 32q-62 0 -95.5 -36.5
t-33.5 -105.5q0 -65 30.5 -101.5t86.5 -36.5q134 0 134 224z" />
    <glyph glyph-name="ntilde" unicode="&#xf1;" 
d="M502.5 487.5q48.5 -46.5 48.5 -122.5v-365h-132v290q0 68 -20.5 97.5t-67.5 29.5q-52 0 -110 -58v-359h-132v406l-22 116h121l19 -67q43 42 83 60.5t85 18.5q79 0 127.5 -46.5zM353.5 612.5q-16.5 6.5 -38.5 18.5q-25 13 -38.5 18t-30.5 5q-47 0 -91 -48v102q46 53 96 53
q19 0 35.5 -6.5t38.5 -18.5q25 -13 38.5 -18t30.5 -5q47 0 91 37v-102q-46 -42 -96 -42q-19 0 -35.5 6.5z" />
    <glyph glyph-name="ograve" unicode="&#xf2;" 
d="M181 21.5q-60 33.5 -92.5 95.5t-32.5 144t32.5 144t92.5 95.5t139 33.5t139 -33.5t92.5 -95.5t32.5 -144t-32.5 -144t-92.5 -95.5t-139 -33.5t-139 33.5zM412 139.5q33 42.5 33 121.5q0 80 -33 122t-92 42t-92 -42t-33 -122q0 -79 33 -121.5t92 -42.5t92 42.5zM107 782
h152l114 -157h-126z" />
    <glyph glyph-name="oacute" unicode="&#xf3;" 
d="M181 21.5q-60 33.5 -92.5 95.5t-32.5 144t32.5 144t92.5 95.5t139 33.5t139 -33.5t92.5 -95.5t32.5 -144t-32.5 -144t-92.5 -95.5t-139 -33.5t-139 33.5zM412 139.5q33 42.5 33 121.5q0 80 -33 122t-92 42t-92 -42t-33 -122q0 -79 33 -121.5t92 -42.5t92 42.5zM381 782
h144l-140 -196h-118z" />
    <glyph glyph-name="ocircumflex" unicode="&#xf4;" 
d="M181 21.5q-60 33.5 -92.5 95.5t-32.5 144t32.5 144t92.5 95.5t139 33.5t139 -33.5t92.5 -95.5t32.5 -144t-32.5 -144t-92.5 -95.5t-139 -33.5t-139 33.5zM412 139.5q33 42.5 33 121.5q0 80 -33 122t-92 42t-92 -42t-33 -122q0 -79 33 -121.5t92 -42.5t92 42.5zM256 782
h128l94 -196h-99l-60 110l-58 -110h-99z" />
    <glyph glyph-name="otilde" unicode="&#xf5;" 
d="M181 21.5q-60 33.5 -92.5 95.5t-32.5 144t32.5 144t92.5 95.5t139 33.5t139 -33.5t92.5 -95.5t32.5 -144t-32.5 -144t-92.5 -95.5t-139 -33.5t-139 33.5zM412 139.5q33 42.5 33 121.5q0 80 -33 122t-92 42t-92 -42t-33 -122q0 -79 33 -121.5t92 -42.5t92 42.5z
M353.5 612.5q-16.5 6.5 -38.5 18.5q-25 13 -38.5 18t-30.5 5q-47 0 -91 -48v102q46 53 96 53q19 0 35.5 -6.5t38.5 -18.5q25 -13 38.5 -18t30.5 -5q47 0 91 37v-102q-46 -42 -96 -42q-19 0 -35.5 6.5z" />
    <glyph glyph-name="odieresis" unicode="&#xf6;" 
d="M181 21.5q-60 33.5 -92.5 95.5t-32.5 144t32.5 144t92.5 95.5t139 33.5t139 -33.5t92.5 -95.5t32.5 -144t-32.5 -144t-92.5 -95.5t-139 -33.5t-139 33.5zM412 139.5q33 42.5 33 121.5q0 80 -33 122t-92 42t-92 -42t-33 -122q0 -79 33 -121.5t92 -42.5t92 42.5zM169.5 631
q-21.5 21 -21.5 53t21.5 53t51.5 21t51.5 -21t21.5 -53t-21.5 -53t-51.5 -21t-51.5 21zM367.5 631q-21.5 21 -21.5 53t21.5 53t51.5 21t51.5 -21t21.5 -53t-21.5 -53t-51.5 -21t-51.5 21z" />
    <glyph glyph-name="divide" unicode="&#xf7;" horiz-adv-x="594" 
d="M233 484q-26 25 -26 66t26 66t64 25t64 -25t26 -66t-26 -66t-64 -25t-64 25zM528 399v-106h-462v106h462zM233 76q-26 25 -26 66t26 66t64 25t64 -25t26 -66t-26 -66t-64 -25t-64 25z" />
    <glyph glyph-name="oslash" unicode="&#xf8;" 
d="M530 438q54 -69 54 -177q0 -82 -32.5 -144t-92.5 -95.5t-139 -33.5q-89 0 -157 44l-29 -32h-125l90 99q-43 68 -43 162q0 82 32.5 144t92.5 95.5t139 33.5q80 0 141 -35l20 23h125zM199 210l181 200q-26 15 -60 15q-59 0 -92 -42t-33 -122q0 -30 4 -51zM436 334
l-191 -212q31 -25 75 -25q59 0 92 42.5t33 121.5q0 42 -9 73z" />
    <glyph glyph-name="ugrave" unicode="&#xf9;" 
d="M448 0l-19 68q-51 -45 -89.5 -62.5t-87.5 -17.5q-47 0 -85.5 22t-60 60.5t-21.5 86.5v365h132v-290q0 -63 20 -95t58 -32q32 0 60 14t60 45v358h132v-406l22 -116h-121zM103 782h152l114 -157h-126z" />
    <glyph glyph-name="uacute" unicode="&#xfa;" 
d="M448 0l-19 68q-51 -45 -89.5 -62.5t-87.5 -17.5q-47 0 -85.5 22t-60 60.5t-21.5 86.5v365h132v-290q0 -63 20 -95t58 -32q32 0 60 14t60 45v358h132v-406l22 -116h-121zM377 782h144l-140 -196h-118z" />
    <glyph glyph-name="ucircumflex" unicode="&#xfb;" 
d="M448 0l-19 68q-51 -45 -89.5 -62.5t-87.5 -17.5q-47 0 -85.5 22t-60 60.5t-21.5 86.5v365h132v-290q0 -63 20 -95t58 -32q32 0 60 14t60 45v358h132v-406l22 -116h-121zM252 782h128l94 -196h-99l-60 110l-58 -110h-99z" />
    <glyph glyph-name="udieresis" unicode="&#xfc;" 
d="M448 0l-19 68q-51 -45 -89.5 -62.5t-87.5 -17.5q-47 0 -85.5 22t-60 60.5t-21.5 86.5v365h132v-290q0 -63 20 -95t58 -32q32 0 60 14t60 45v358h132v-406l22 -116h-121zM165.5 631q-21.5 21 -21.5 53t21.5 53t51.5 21t51.5 -21t21.5 -53t-21.5 -53t-51.5 -21t-51.5 21z
M363.5 631q-21.5 21 -21.5 53t21.5 53t51.5 21t51.5 -21t21.5 -53t-21.5 -53t-51.5 -21t-51.5 21z" />
    <glyph glyph-name="yacute" unicode="&#xfd;" horiz-adv-x="560" 
d="M555 522l-299 -754h-125l85 215l-211 539h134l145 -382l139 382h132zM342 782h144l-140 -196h-118z" />
    <glyph glyph-name="thorn" unicode="&#xfe;" 
d="M79 754h132v-274q61 54 143 54q68 0 120 -34t81 -96.5t29 -144.5q0 -127 -68 -198.5t-186 -71.5q-31 0 -58.5 6.5t-60.5 21.5v-249h-132v986zM415 137.5q30 37.5 30 123.5q0 81 -25.5 120t-79.5 39q-65 0 -129 -55v-255q25 -7 49 -8.5t57 -1.5q68 0 98 37.5z" />
    <glyph glyph-name="ydieresis" unicode="&#xff;" horiz-adv-x="560" 
d="M555 522l-299 -754h-125l85 215l-211 539h134l145 -382l139 382h132zM130.5 631q-21.5 21 -21.5 53t21.5 53t51.5 21t51.5 -21t21.5 -53t-21.5 -53t-51.5 -21t-51.5 21zM328.5 631q-21.5 21 -21.5 53t21.5 53t51.5 21t51.5 -21t21.5 -53t-21.5 -53t-51.5 -21t-51.5 21z
" />
    <glyph glyph-name="dotlessi" unicode="&#x131;" horiz-adv-x="280" 
d="M206 522v-522h-132v521z" />
    <glyph glyph-name="OE" unicode="&#x152;" horiz-adv-x="1060" 
d="M236 32q-77 44 -117 125t-40 191t40 191t117 125t184 44q55 0 103 -12h454v-116h-322v-174h300v-109h-300v-181h322v-116h-454q-48 -12 -103 -12q-107 0 -184 44zM523 135v426q-45 25 -104 25q-94 0 -147.5 -61.5t-53.5 -176.5t53.5 -176.5t147.5 -61.5q56 0 104 25z" />
    <glyph glyph-name="oe" unicode="&#x153;" horiz-adv-x="996" 
d="M946 221h-363q8 -60 44.5 -92t97.5 -32q45 0 97.5 16.5t97.5 45.5h4v-107q-40 -31 -91.5 -47.5t-108.5 -16.5q-65 0 -117.5 21t-87.5 61q-35 -39 -86 -60.5t-113 -21.5q-79 0 -139 33.5t-92.5 95.5t-32.5 144t32.5 144t92.5 95.5t139 33.5q62 0 112.5 -21t85.5 -60
q33 39 81 60t107 21q73 0 127.5 -33t83.5 -95t29 -145v-40zM627.5 397q-31.5 -31 -42.5 -86h225q-8 57 -34 87t-70 30q-47 0 -78.5 -31zM412 139.5q33 42.5 33 121.5q0 80 -33 122t-92 42t-92 -42t-33 -122q0 -79 33 -121.5t92 -42.5t92 42.5z" />
    <glyph glyph-name="uni02BC" unicode="&#x2bc;" horiz-adv-x="260" 
d="M198 784q0 -48 -13.5 -99t-48.5 -118h-112q33 63 41.5 110.5t8.5 106.5h124z" />
    <glyph glyph-name="circumflex" unicode="&#x2c6;" horiz-adv-x="484" 
d="M178 782h128l94 -196h-99l-60 110l-58 -110h-99z" />
    <glyph glyph-name="ring" unicode="&#x2da;" horiz-adv-x="308" 
d="M76 762q32 32 78 32t78 -32t32 -78t-32 -78t-78 -32t-78 32t-32 78t32 78zM123.5 653q12.5 -13 30.5 -13t30 13t12 31q0 19 -12 31t-30 12q-19 0 -31 -12t-12 -31q0 -18 12.5 -31z" />
    <glyph glyph-name="tilde" unicode="&#x2dc;" horiz-adv-x="462" 
d="M264.5 612.5q-16.5 6.5 -38.5 18.5q-25 13 -38.5 18t-30.5 5q-47 0 -91 -48v102q46 53 96 53q19 0 35.5 -6.5t38.5 -18.5q25 -13 38.5 -18t30.5 -5q47 0 91 37v-102q-46 -42 -96 -42q-19 0 -35.5 6.5z" />
    <glyph glyph-name="gravecomb" unicode="&#x300;" horiz-adv-x="0" 
d="M-389 782h152l114 -157h-126z" />
    <glyph glyph-name="acutecomb" unicode="&#x301;" horiz-adv-x="0" 
d="M-115 782h144l-140 -196h-118z" />
    <glyph glyph-name="tildecomb" unicode="&#x303;" horiz-adv-x="0" 
d="M-197.5 612.5q-16.5 6.5 -38.5 18.5q-25 13 -38.5 18t-30.5 5q-47 0 -91 -48v102q46 53 96 53q19 0 35.5 -6.5t38.5 -18.5q25 -13 38.5 -18t30.5 -5q47 0 91 37v-102q-46 -42 -96 -42q-19 0 -35.5 6.5z" />
    <glyph glyph-name="uni0304" unicode="&#x304;" horiz-adv-x="0" 
d="M-80 734v-100h-302v100h302z" />
    <glyph glyph-name="uni0308" unicode="&#x308;" horiz-adv-x="0" 
d="M-392.5 631q-21.5 21 -21.5 53t21.5 53t51.5 21t51.5 -21t21.5 -53t-21.5 -53t-51.5 -21t-51.5 21zM-194.5 631q-21.5 21 -21.5 53t21.5 53t51.5 21t51.5 -21t21.5 -53t-21.5 -53t-51.5 -21t-51.5 21z" />
    <glyph glyph-name="dotbelowcomb" unicode="&#x323;" horiz-adv-x="0" 
d="M-183.5 -224q-21.5 21 -21.5 53t21.5 53t51.5 21t51.5 -21t21.5 -53t-21.5 -53t-51.5 -21t-51.5 21z" />
    <glyph glyph-name="endash" unicode="&#x2013;" 
d="M570 323v-106h-500v106h500z" />
    <glyph glyph-name="emdash" unicode="&#x2014;" horiz-adv-x="1000" 
d="M930 323v-106h-860v106h860z" />
    <glyph glyph-name="quoteleft" unicode="&#x2018;" horiz-adv-x="220" 
d="M11 434q0 58 18 120t64 142h120q-33 -53 -48 -98.5t-18.5 -80.5t-3.5 -83h-132z" />
    <glyph glyph-name="quoteright" unicode="&#x2019;" horiz-adv-x="220" 
d="M209 696q0 -58 -18 -120t-64 -142h-120q33 53 48 98.5t18.5 80.5t3.5 83h132z" />
    <glyph glyph-name="quotesinglbase" unicode="&#x201a;" horiz-adv-x="260" 
d="M202 150q0 -67 -18 -138t-64 -162h-132q33 60 48 112.5t18.5 93t3.5 94.5h144z" />
    <glyph glyph-name="quotedblleft" unicode="&#x201c;" horiz-adv-x="400" 
d="M11 434q0 58 18 120t64 142h120q-33 -53 -48 -98.5t-18.5 -80.5t-3.5 -83h-132zM191 434q0 58 18 120t64 142h120q-33 -53 -48 -98.5t-18.5 -80.5t-3.5 -83h-132z" />
    <glyph glyph-name="quotedblright" unicode="&#x201d;" horiz-adv-x="400" 
d="M209 696q0 -58 -18 -120t-64 -142h-120q33 53 48 98.5t18.5 80.5t3.5 83h132zM389 696q0 -58 -18 -120t-64 -142h-120q33 53 48 98.5t18.5 80.5t3.5 83h132z" />
    <glyph glyph-name="quotedblbase" unicode="&#x201e;" horiz-adv-x="460" 
d="M402 150q0 -67 -18 -138t-64 -162h-132q33 60 48 112.5t18.5 93t3.5 94.5h144zM202 150q0 -67 -18 -138t-64 -162h-132q33 60 48 112.5t18.5 93t3.5 94.5h144z" />
    <glyph glyph-name="bullet" unicode="&#x2022;" horiz-adv-x="352" 
d="M82.5 211.5q-38.5 37.5 -38.5 96.5t38.5 96.5t93.5 37.5t93.5 -37.5t38.5 -96.5t-38.5 -96.5t-93.5 -37.5t-93.5 37.5z" />
    <glyph glyph-name="ellipsis" unicode="&#x2026;" horiz-adv-x="792" 
d="M68 13q-26 25 -26 66t26 66t64 25t64 -25t26 -66t-26 -66t-64 -25t-64 25zM332 13q-26 25 -26 66t26 66t64 25t64 -25t26 -66t-26 -66t-64 -25t-64 25zM596 13q-26 25 -26 66t26 66t64 25t64 -25t26 -66t-26 -66t-64 -25t-64 25z" />
    <glyph glyph-name="guilsinglleft" unicode="&#x2039;" horiz-adv-x="352" 
d="M330 58h-153l-177 205v4l187 197h143l-181 -197v-4z" />
    <glyph glyph-name="guilsinglright" unicode="&#x203a;" horiz-adv-x="352" 
d="M22 464h153l177 -205v-4l-187 -197h-143l181 197v4z" />
    <glyph glyph-name="fraction" unicode="&#x2044;" horiz-adv-x="280" 
d="M407 696l-414 -696h-120l414 696h120z" />
    <glyph glyph-name="uni2074" unicode="&#x2074;" horiz-adv-x="409" 
d="M380 479h-58v-81h-104v81h-199v82h1l198 241h104v-237h58v-86zM218 565v107l-77 -107h77z" />
    <glyph glyph-name="Euro" unicode="&#x20ac;" horiz-adv-x="594" 
d="M285.5 560.5q-35.5 -34.5 -48.5 -97.5h181v-92h-191v-23v-29h191v-92h-180q14 -60 49.5 -93t98.5 -33q41 0 79 12.5t81 39.5h4v-121q-42 -24 -80.5 -34t-79.5 -10q-125 0 -196.5 63.5t-94.5 175.5h-77v92h67q-1 10 -1 29v23h-66v92h76q22 114 94 179.5t199 65.5
q41 0 79.5 -9.5t79.5 -34.5v-121h-4q-81 52 -160 52q-65 0 -100.5 -34.5z" />
    <glyph glyph-name="trademark" unicode="&#x2122;" horiz-adv-x="638" 
d="M44 696h205v-66h-67v-204h-71v204h-67v66zM594 426h-71v158l-45 -158h-80l-49 161v-161h-71v270h106l54 -179l50 179h106v-270z" />
    <glyph glyph-name="minus" unicode="&#x2212;" horiz-adv-x="594" 
d="M528 399v-106h-462v106h462z" />
    <glyph glyph-name="Ldot" horiz-adv-x="580" 
d="M103 696h132v-580h293v-116h-425v696zM412 325q-26 25 -26 66t26 66t64 25t64 -25t26 -66t-26 -66t-64 -25t-64 25z" />
    <glyph glyph-name="i.loclTRK" horiz-adv-x="280" 
d="M206 522v-522h-132v521zM82 623q-24 23 -24 60t24 60t58 23t58 -23t24 -60t-24 -60t-58 -23t-58 23z" />
    <glyph glyph-name="ldot" horiz-adv-x="340" 
d="M74 754h132v-754h-132v754zM264.5 316q-20.5 20 -20.5 52t20.5 52t50.5 20t50.5 -20t20.5 -52t-20.5 -52t-50.5 -20t-50.5 20z" />
    <glyph glyph-name="zero.dnom" horiz-adv-x="410" 
d="M61.5 44.5q-46.5 57.5 -46.5 151.5t46.5 151.5t143.5 57.5t143.5 -57.5t46.5 -151.5t-46.5 -151.5t-143.5 -57.5t-143.5 57.5zM266 107.5q20 34.5 20 88.5q0 53 -20.5 88t-60.5 35t-60.5 -35t-20.5 -88q0 -54 20 -88.5t61 -34.5t61 34.5z" />
    <glyph glyph-name="one.dnom" horiz-adv-x="410" 
d="M370 82v-88h-330v88h124v202l-79 -24h-3l-22 67v2l137 69h71v-316h102z" />
    <glyph glyph-name="two.dnom" horiz-adv-x="409" 
d="M363 82v-88h-317v79l136 115q64 55 64 95q0 19 -15 27t-47 8q-65 0 -125 -33v91q63 29 130 29q75 0 118.5 -30t43.5 -87q0 -58 -61 -117l-94 -89h167z" />
    <glyph glyph-name="three.dnom" horiz-adv-x="410" 
d="M354.5 163q15.5 -26 15.5 -56q0 -56 -50.5 -88t-132.5 -32q-78 0 -147 33v98h3q70 -44 139 -44q81 0 81 37q0 22 -25 37t-66 15h-27v83h27q38 0 60.5 12t22.5 32q0 27 -69 27q-60 0 -131 -36h-2v95q65 29 137 29q78 0 124 -29t46 -80q0 -27 -13 -50t-37 -40
q29 -17 44.5 -43z" />
    <glyph glyph-name="four.dnom" horiz-adv-x="409" 
d="M380 75h-58v-81h-104v81h-199v82h1l198 241h104v-237h58v-86zM218 161v107l-77 -107h77z" />
    <glyph glyph-name="five.dnom" horiz-adv-x="409" 
d="M336.5 210.5q43.5 -36.5 43.5 -91.5q0 -60 -52 -95.5t-138 -35.5q-44 0 -86 9.5t-75 27.5v95h3q32 -20 75.5 -33t79.5 -13q40 0 63.5 12.5t23.5 32.5q0 19 -19.5 30.5t-52.5 11.5q-31 0 -60 -13v-2h-5q-15 -7 -25 -15h-3l-65 15v3l30 249h284v-88h-197l-9 -76
q32 13 71 13q70 0 113.5 -36.5z" />
    <glyph glyph-name="six.dnom" horiz-adv-x="409" 
d="M335.5 225q45.5 -39 45.5 -100q0 -63 -47.5 -100.5t-123.5 -37.5q-88 0 -135 52t-47 146q0 103 53 161.5t146 58.5q72 0 134 -37v-90h-3q-28 20 -62 30.5t-62 10.5q-69 0 -89 -68q32 13 72 13q73 0 118.5 -39zM255 86.5q18 13.5 18 37.5q0 22 -16.5 38t-48.5 16t-70 -16
q3 -45 20.5 -67t50.5 -22q28 0 46 13.5z" />
    <glyph glyph-name="seven.dnom" horiz-adv-x="410" 
d="M362 398v-39l-164 -365h-87l-25 2l149 314h-171v88h298z" />
    <glyph glyph-name="eight.dnom" horiz-adv-x="409" 
d="M74 20.5q-51 33.5 -51 86.5q0 32 20.5 58.5t51.5 36.5q-29 9 -46 35t-17 55q0 51 48.5 82t124.5 31t124.5 -30.5t48.5 -81.5q0 -30 -17.5 -56t-46.5 -35q34 -11 53 -37t19 -58q0 -53 -50.5 -86.5t-130.5 -33.5t-131 33.5zM272 281q0 18 -17 28.5t-50 10.5t-50.5 -10.5
t-17.5 -28.5q0 -17 17.5 -27t49.5 -10q68 0 68 37zM260.5 84q19.5 12 19.5 33t-19.5 32t-55.5 11t-55.5 -11t-19.5 -32q0 -22 19.5 -33.5t55.5 -11.5t55.5 12z" />
    <glyph glyph-name="nine.dnom" horiz-adv-x="409" 
d="M334.5 354q44.5 -51 44.5 -150q0 -107 -51.5 -162t-151.5 -55q-36 0 -65.5 7.5t-60.5 23.5v92h2q29 -17 63 -26.5t63 -9.5q38 0 59 17.5t29 57.5q-33 -16 -78 -16q-72 0 -115 37.5t-43 97.5q0 64 47 100.5t124 36.5q89 0 133.5 -51zM155 233.5q17 -14.5 46 -14.5
q34 0 68 18q-4 43 -20.5 62t-48.5 19q-28 0 -45 -12t-17 -35t17 -37.5z" />
    <glyph glyph-name="zero.numr" horiz-adv-x="410" 
d="M61.5 348.5q-46.5 57.5 -46.5 151.5t46.5 151.5t143.5 57.5t143.5 -57.5t46.5 -151.5t-46.5 -151.5t-143.5 -57.5t-143.5 57.5zM266 411.5q20 34.5 20 88.5q0 53 -20.5 88t-60.5 35t-60.5 -35t-20.5 -88q0 -54 20 -88.5t61 -34.5t61 34.5z" />
    <glyph glyph-name="one.numr" horiz-adv-x="410" 
d="M370 386v-88h-330v88h124v202l-79 -24h-3l-22 67v2l137 69h71v-316h102z" />
    <glyph glyph-name="two.numr" horiz-adv-x="409" 
d="M363 386v-88h-317v79l136 115q64 55 64 95q0 19 -15 27t-47 8q-65 0 -125 -33v91q63 29 130 29q75 0 118.5 -30t43.5 -87q0 -58 -61 -117l-94 -89h167z" />
    <glyph glyph-name="three.numr" horiz-adv-x="410" 
d="M354.5 467q15.5 -26 15.5 -56q0 -56 -50.5 -88t-132.5 -32q-78 0 -147 33v98h3q70 -44 139 -44q81 0 81 37q0 22 -25 37t-66 15h-27v83h27q38 0 60.5 12t22.5 32q0 27 -69 27q-60 0 -131 -36h-2v95q65 29 137 29q78 0 124 -29t46 -80q0 -27 -13 -50t-37 -40
q29 -17 44.5 -43z" />
    <glyph glyph-name="four.numr" horiz-adv-x="409" 
d="M380 379h-58v-81h-104v81h-199v82h1l198 241h104v-237h58v-86zM218 465v107l-77 -107h77z" />
    <glyph glyph-name="five.numr" horiz-adv-x="409" 
d="M336.5 514.5q43.5 -36.5 43.5 -91.5q0 -60 -52 -95.5t-138 -35.5q-44 0 -86 9.5t-75 27.5v95h3q32 -20 75.5 -33t79.5 -13q40 0 63.5 12.5t23.5 32.5q0 19 -19.5 30.5t-52.5 11.5q-31 0 -60 -13v-2h-5q-15 -7 -25 -15h-3l-65 15v3l30 249h284v-88h-197l-9 -76
q32 13 71 13q70 0 113.5 -36.5z" />
    <glyph glyph-name="six.numr" horiz-adv-x="409" 
d="M335.5 529q45.5 -39 45.5 -100q0 -63 -47.5 -100.5t-123.5 -37.5q-88 0 -135 52t-47 146q0 103 53 161.5t146 58.5q72 0 134 -37v-90h-3q-28 20 -62 30.5t-62 10.5q-69 0 -89 -68q32 13 72 13q73 0 118.5 -39zM255 390.5q18 13.5 18 37.5q0 22 -16.5 38t-48.5 16t-70 -16
q3 -45 20.5 -67t50.5 -22q28 0 46 13.5z" />
    <glyph glyph-name="seven.numr" horiz-adv-x="410" 
d="M362 702v-39l-164 -365h-87l-25 2l149 314h-171v88h298z" />
    <glyph glyph-name="eight.numr" horiz-adv-x="409" 
d="M74 324.5q-51 33.5 -51 86.5q0 32 20.5 58.5t51.5 36.5q-29 9 -46 35t-17 55q0 51 48.5 82t124.5 31t124.5 -30.5t48.5 -81.5q0 -30 -17.5 -56t-46.5 -35q34 -11 53 -37t19 -58q0 -53 -50.5 -86.5t-130.5 -33.5t-131 33.5zM272 585q0 18 -17 28.5t-50 10.5t-50.5 -10.5
t-17.5 -28.5q0 -17 17.5 -27t49.5 -10q68 0 68 37zM260.5 388q19.5 12 19.5 33t-19.5 32t-55.5 11t-55.5 -11t-19.5 -32q0 -22 19.5 -33.5t55.5 -11.5t55.5 12z" />
    <glyph glyph-name="nine.numr" horiz-adv-x="409" 
d="M334.5 658q44.5 -51 44.5 -150q0 -107 -51.5 -162t-151.5 -55q-36 0 -65.5 7.5t-60.5 23.5v92h2q29 -17 63 -26.5t63 -9.5q38 0 59 17.5t29 57.5q-33 -16 -78 -16q-72 0 -115 37.5t-43 97.5q0 64 47 100.5t124 36.5q89 0 133.5 -51zM155 537.5q17 -14.5 46 -14.5
q33 0 68 18q-4 43 -20.5 62t-48.5 19q-28 0 -45 -12t-17 -35t17 -37.5z" />
    <glyph glyph-name="uni0327" horiz-adv-x="0" 
d="M-270 -218v85h4q47 -25 87 -25q24 0 37 11t13 31q0 26 -21 56t-58 60l106 26q70 -86 70 -157q0 -55 -39 -84t-96 -29q-52 0 -103 26z" />
    <glyph glyph-name="uni0302" horiz-adv-x="0" 
d="M-306 782h128l94 -196h-99l-60 110l-58 -110h-99z" />
    <glyph glyph-name="uni0307" horiz-adv-x="0" 
d="M-190 623q-24 23 -24 60t24 60t58 23t58 -23t24 -60t-24 -60t-58 -23t-58 23z" />
    <glyph glyph-name="uni030A" horiz-adv-x="0" 
d="M-232 762q32 32 78 32t78 -32t32 -78t-32 -78t-78 -32t-78 32t-32 78t32 78zM-184.5 653q12.5 -13 30.5 -13t30 13t12 31q0 19 -12 31t-30 12q-19 0 -31 -12t-12 -31q0 -18 12.5 -31z" />
    <glyph glyph-name="acutecomb.case" horiz-adv-x="0" 
d="M-114 928h152l-141 -146h-115z" />
    <glyph glyph-name="uni0302.case" horiz-adv-x="0" 
d="M-306 928h128l94 -196h-99l-60 110l-58 -110h-99z" />
    <glyph glyph-name="uni0308.case" horiz-adv-x="0" 
d="M-392.5 791q-21.5 21 -21.5 53t21.5 53t51.5 21t51.5 -21t21.5 -53t-21.5 -53t-51.5 -21t-51.5 21zM-194.5 791q-21.5 21 -21.5 53t21.5 53t51.5 21t51.5 -21t21.5 -53t-21.5 -53t-51.5 -21t-51.5 21z" />
    <glyph glyph-name="gravecomb.case" horiz-adv-x="0" 
d="M-221 782l-141 146h152l104 -146h-115z" />
    <glyph glyph-name="uni030A.case" horiz-adv-x="0" 
d="M-232 896q32 32 78 32t78 -32t32 -78t-32 -78t-78 -32t-78 32t-32 78t32 78zM-184.5 787q12.5 -13 30.5 -13t30 13t12 31q0 19 -12 31t-30 12q-19 0 -31 -12t-12 -31q0 -18 12.5 -31z" />
    <glyph glyph-name="tildecomb.case" horiz-adv-x="0" 
d="M-197.5 779.5q-16.5 6.5 -38.5 18.5q-25 13 -38.5 18t-30.5 5q-47 0 -91 -48v94q46 53 96 53q19 0 35.5 -6.5t38.5 -18.5q25 -13 38.5 -18t30.5 -5q47 0 91 37v-94q-46 -42 -96 -42q-19 0 -35.5 6.5z" />
    </font>
</defs>
</svg>
